<svg width="251" height="334" viewBox="0 0 251 334" fill="none" xmlns="http://www.w3.org/2000/svg">
<path d="M156.957 289.355C148.295 297.455 138.897 299.005 137.265 301.619C136.794 302.384 134.225 308.9 130.818 317.768L130.415 318.812C128.094 324.832 125.439 331.85 122.793 338.836C122.149 340.52 121.52 342.2 120.894 343.87C116.768 354.812 112.849 365.265 109.131 375.215C78.4088 368.55 59.0611 363.429 51.091 359.857C43.1181 356.286 33.6224 351.045 22.5953 344.141C27.7526 333.665 32.5794 322.46 37.0759 310.525C37.8602 308.445 38.6274 306.332 39.3744 304.211C39.383 304.196 39.383 304.187 39.383 304.181L39.8628 302.816C41.9746 296.682 43.8277 290.528 45.1063 284.849C45.1867 284.514 45.2557 284.178 45.3361 283.851C45.4281 283.437 45.5143 283.023 45.6091 282.617C49.0281 267.093 50.7376 256.623 50.7376 251.213L62.6956 221.26L180.652 264.592C170.625 275.704 162.724 283.959 156.957 289.355ZM239.913 129.744C245.881 131.834 249.783 134.927 250.607 139.855C251.432 144.787 244.373 153.844 231.412 153.22C222.769 152.806 215.5 148.799 209.605 141.198L216.193 116.348C228.03 123.885 235.937 128.352 239.913 129.741V129.744Z" fill="#FFEBE0"/>
<path d="M93.5071 285.885C93.3117 285.798 93.2198 285.567 93.2974 285.36C93.3117 285.319 95.05 281.109 96.6503 274.555C98.2277 268.094 96.6733 263.399 96.6561 263.349C96.5871 263.145 96.6963 262.92 96.9003 262.839C97.1043 262.769 97.3255 262.88 97.4031 263.087C97.4749 263.285 99.0436 268.039 97.4117 274.747C95.7941 281.365 94.0415 285.623 94.0157 285.672C93.9524 285.83 93.803 285.917 93.6536 285.917C93.5991 285.917 93.5531 285.912 93.5042 285.888L93.5071 285.885Z" fill="#EFC3AC"/>
<path d="M101.905 267.951C101.793 267.759 101.856 267.516 102.046 267.4L107.393 264.19C107.583 264.079 107.818 264.14 107.936 264.333C108.045 264.525 107.982 264.765 107.792 264.884L102.448 268.094C102.385 268.138 102.313 268.152 102.241 268.152C102.109 268.152 101.974 268.08 101.905 267.954V267.951Z" fill="#EFC3AC"/>
<path d="M-2.03035 361.211C3.88256 350.733 11.8584 335.766 11.8584 323.42C11.8584 311.275 21.7046 306.495 28.0427 293.881C34.3694 281.266 33.8379 276.265 41.4919 280.548C49.1488 284.832 132.863 321.911 134.975 322.311C136.383 322.577 135.808 334.617 133.251 358.428C134.306 357.476 135.093 363.193 135.613 375.58C136.233 390.532 128.508 403.71 128.16 418.469C127.988 425.787 122.988 431.268 117.607 435.685C63.9943 428.954 31.5623 422.729 20.3083 417.016C3.42573 408.446 -29.6383 413.444 -26.8255 399.867C-23.9294 385.889 -12.4024 376.645 -4.63053 365.352C-3.70251 364.004 -2.83195 362.624 -2.03035 361.214V361.211Z" fill="#2D84E5"/>
<path d="M241.221 22.1185C240.362 22.7138 239.979 23.1457 240.069 23.4112C240.16 23.6768 241.861 24.987 245.163 27.3418L241.221 22.1185V22.1185ZM69.028 255.328C69.3297 253.451 69.3297 252.477 69.028 252.41C68.7234 252.34 67.7638 252.095 66.1462 251.674L69.028 255.328Z" fill="#1EAE79"/>
<path d="M74.1824 258.558C69.8899 257.928 66.9134 253.883 67.534 249.521L101.411 10.9891C102.032 6.62665 106.011 3.60357 110.306 4.23386L239.425 23.1486C243.717 23.7788 246.694 27.8232 246.073 32.1828L212.196 270.717C211.567 275.08 207.585 278.103 203.298 277.473L74.1824 258.558Z" fill="#1EAE79"/>
<path d="M70.9645 254.473C66.6692 253.848 63.6955 249.801 64.3132 245.438L98.2018 6.90387C98.8253 2.54141 102.805 -0.478754 107.1 0.148623L236.216 19.0662C240.511 19.6965 243.485 23.738 242.864 28.1005L208.984 266.635C208.358 270.998 204.376 274.018 200.08 273.39L70.9645 254.473Z" fill="#28C38A"/>
<path d="M207.375 243.454C206.826 247.361 203.261 250.072 199.417 249.506L78.2565 231.756C74.418 231.19 71.7402 227.568 72.2976 223.661L99.7935 30.0934C100.354 26.1862 103.916 23.4753 107.758 24.0414L228.912 41.7947C232.768 42.3608 235.431 45.9821 234.874 49.8894L207.378 243.457L207.375 243.454Z" fill="#91DABF"/>
<path d="M124.491 255.576C121.483 255.138 119.403 252.308 119.837 249.252L119.874 248.99C120.305 245.935 123.092 243.819 126.1 244.26L150.033 247.767C153.038 248.205 155.119 251.035 154.688 254.09L154.65 254.353C154.211 257.408 151.421 259.521 148.421 259.083L124.488 255.576H124.491Z" fill="white"/>
<path d="M184.973 24.9899L154.587 20.499C153.731 20.3735 153.133 19.5652 153.26 18.6898C153.386 17.8232 154.185 17.2221 155.041 17.3417L185.427 21.8326C186.283 21.961 186.881 22.7663 186.755 23.6417C186.64 24.4296 185.97 25.0045 185.2 25.0045C185.123 25.0045 185.051 24.9986 184.97 24.9899H184.973Z" fill="#5EE4B3"/>
<path d="M146.884 16.1307C145.982 16.1307 145.244 16.8807 145.244 17.7969C145.244 18.7132 145.982 19.4631 146.884 19.4631C147.786 19.4631 148.525 18.7219 148.525 17.7998C148.525 16.8807 147.786 16.1307 146.887 16.1307H146.884Z" fill="#5EE4B3"/>
<path d="M99.7993 30.0934C100.357 26.1862 103.922 23.4753 107.758 24.0414L228.918 41.7947C232.774 42.3608 235.434 45.9821 234.877 49.8894L99.7993 30.0934Z" fill="white"/>
<path fill-rule="evenodd" clip-rule="evenodd" d="M225.729 42.9782L225.161 46.9812L214.747 45.4552L215.316 41.4523L225.729 42.9782Z" fill="#28C38A"/>
<path fill-rule="evenodd" clip-rule="evenodd" d="M224.983 43.5324L224.601 46.2241L221.305 45.7412L221.688 43.0494L224.983 43.5324V43.5324Z" fill="white"/>
<path d="M115.774 28.188C115.76 28.1413 115.352 26.8749 113.53 26.5627C111.662 26.2417 110.686 27.2397 110.648 27.2805C110.499 27.4381 110.246 27.4381 110.091 27.2864C109.933 27.1375 109.924 26.8895 110.074 26.7319C110.122 26.6706 111.369 25.378 113.648 25.769C115.972 26.16 116.498 27.8904 116.512 27.9633C116.576 28.1676 116.449 28.3923 116.245 28.4594C116.222 28.474 116.191 28.474 116.153 28.474C115.981 28.474 115.823 28.3602 115.774 28.1851V28.188Z" fill="#28C38A"/>
<path d="M114.702 28.9292C114.694 28.9059 114.372 28.1793 113.329 28.0042C112.07 27.7971 111.318 28.3836 111.309 28.3836C111.145 28.5207 110.898 28.4974 110.763 28.3281C110.617 28.1647 110.64 27.9109 110.812 27.7766C110.855 27.7416 111.829 26.9421 113.461 27.2134C114.946 27.4615 115.415 28.5791 115.432 28.6258C115.51 28.8242 115.418 29.0635 115.219 29.1452C115.165 29.1685 115.119 29.1744 115.064 29.1744C114.906 29.1744 114.765 29.081 114.702 28.9292V28.9292Z" fill="#28C38A"/>
<path d="M114.004 30.041C114.001 30.0235 113.671 29.5624 112.97 29.4837C112.303 29.4195 111.792 29.72 111.792 29.7288C111.611 29.8426 111.369 29.793 111.252 29.6033C111.131 29.4195 111.188 29.1714 111.367 29.0489C111.404 29.0372 112.102 28.582 113.056 28.6841C114.133 28.7979 114.642 29.5537 114.665 29.5887C114.783 29.7696 114.737 30.0176 114.556 30.1373C114.478 30.1927 114.406 30.2161 114.326 30.2161C114.205 30.2161 114.079 30.1519 114.01 30.041H114.004Z" fill="#28C38A"/>
<path fill-rule="evenodd" clip-rule="evenodd" d="M112.105 30.6042C112.105 30.2307 112.412 29.9185 112.78 29.9185C113.156 29.9185 113.455 30.2307 113.455 30.6042C113.455 30.9777 113.156 31.2899 112.78 31.2899C112.404 31.2899 112.105 30.9777 112.105 30.6042ZM112.671 30.6042C112.671 30.7238 112.884 30.7238 112.884 30.6042C112.889 30.54 112.843 30.4933 112.78 30.4933C112.717 30.4933 112.671 30.54 112.671 30.6042Z" fill="#28C38A"/>
<path d="M209.731 44.9579C209.519 44.9171 209.375 44.7186 209.409 44.4939L209.72 42.6206C209.754 42.4046 209.958 42.2587 210.171 42.2938C210.383 42.3346 210.533 42.533 210.495 42.7577L210.188 44.6311C210.148 44.8237 209.984 44.9667 209.794 44.9667C209.771 44.9667 209.748 44.9667 209.731 44.9579Z" fill="#28C38A"/>
<path d="M208.478 44.7362C208.266 44.6954 208.122 44.494 208.157 44.2723L208.323 43.251C208.361 43.035 208.565 42.8891 208.777 42.9241C208.99 42.965 209.139 43.1634 209.099 43.3881L208.935 44.4065C208.895 44.5962 208.731 44.7392 208.542 44.7392C208.519 44.7421 208.496 44.7421 208.478 44.7362Z" fill="#28C38A"/>
<path d="M210.903 45.2235C210.691 45.1856 210.547 44.9784 210.582 44.7567L211.038 41.9699C211.064 41.7511 211.28 41.6052 211.492 41.6402C211.705 41.6723 211.854 41.8795 211.814 42.1042L211.36 44.8938C211.32 45.0951 211.156 45.2294 210.967 45.2294C210.944 45.2294 210.921 45.2294 210.903 45.2206V45.2235Z" fill="#28C38A"/>
<path d="M212.205 45.4744C211.992 45.4394 211.849 45.241 211.883 45.0163L212.486 41.3133C212.53 41.0974 212.734 40.9515 212.949 40.9865C213.159 41.0274 213.308 41.2258 213.268 41.4505L212.665 45.1505C212.633 45.349 212.461 45.4861 212.271 45.4861C212.248 45.4861 212.225 45.4861 212.208 45.4774L212.205 45.4744Z" fill="#28C38A"/>
<path d="M92.8377 221.102C91.5505 220.909 90.6541 219.698 90.8437 218.388L93.0273 203.031C93.214 201.723 94.4064 200.813 95.6964 201.006L188.7 214.633C189.987 214.825 190.883 216.036 190.694 217.347L188.51 232.704C188.323 234.011 187.131 234.913 185.844 234.729L92.8377 221.102V221.102Z" fill="white"/>
<path fill-rule="evenodd" clip-rule="evenodd" d="M127.893 217.919C127.72 218.152 127.508 218.318 127.249 218.429C126.991 218.54 126.698 218.604 126.37 218.613C126.04 218.619 125.695 218.604 125.333 218.555C125.189 218.54 125.048 218.517 124.908 218.493C124.767 218.47 124.626 218.435 124.491 218.412L124.117 218.333C123.997 218.304 123.902 218.275 123.816 218.245C123.652 218.199 123.543 218.126 123.48 218.047C123.416 217.965 123.402 217.822 123.431 217.633L124.135 212.465C124.155 212.269 124.209 212.144 124.287 212.082C124.367 212.018 124.485 211.986 124.652 211.977C124.724 211.977 124.816 211.977 124.933 211.986L125.313 212.007C125.453 212.015 125.594 212.03 125.735 212.047L126.149 212.094C126.542 212.152 126.902 212.228 127.218 212.333C127.531 212.438 127.798 212.573 128.011 212.742C128.223 212.908 128.378 213.115 128.473 213.363C128.568 213.609 128.6 213.897 128.551 214.239L128.531 214.394C128.49 214.674 128.398 214.913 128.249 215.12C128.091 215.319 127.904 215.462 127.66 215.549C127.873 215.695 128.019 215.885 128.131 216.115C128.24 216.349 128.272 216.611 128.232 216.903V217.02C128.186 217.393 128.068 217.694 127.896 217.919H127.893ZM126.738 216.139C126.629 215.972 126.407 215.87 126.071 215.82L125.135 215.695L124.925 217.279C124.954 217.288 125.011 217.288 125.074 217.306C125.135 217.312 125.206 217.32 125.27 217.335C125.341 217.352 125.402 217.361 125.474 217.367C125.537 217.376 125.583 217.385 125.617 217.385C126.048 217.449 126.353 217.425 126.534 217.312C126.715 217.209 126.824 217.034 126.856 216.795V216.699C126.884 216.492 126.841 216.308 126.738 216.141V216.139ZM126.982 213.571C126.824 213.436 126.534 213.343 126.103 213.282C126.071 213.267 126.022 213.267 125.959 213.261L125.781 213.238L125.591 213.215C125.534 213.203 125.488 213.203 125.459 213.197L125.261 214.665L126.195 214.793C126.361 214.817 126.502 214.817 126.62 214.793C126.729 214.767 126.824 214.735 126.902 214.68C126.973 214.633 127.028 214.569 127.068 214.49C127.106 214.411 127.131 214.329 127.146 214.233L127.169 214.122C127.2 213.889 127.14 213.708 126.982 213.574V213.571ZM132.527 219.424C132.49 219.456 132.45 219.465 132.404 219.456L131.467 219.331C131.421 219.322 131.389 219.299 131.358 219.267C131.329 219.226 131.318 219.185 131.329 219.138L131.343 219.004C131.162 219.097 130.981 219.17 130.792 219.208C130.605 219.249 130.384 219.258 130.131 219.217C129.953 219.194 129.772 219.147 129.608 219.074C129.441 219.004 129.301 218.899 129.183 218.771C129.068 218.636 128.982 218.479 128.924 218.275C128.867 218.079 128.861 217.837 128.893 217.568L128.901 217.487C128.97 216.991 129.183 216.649 129.536 216.465C129.898 216.284 130.433 216.244 131.154 216.34L131.611 216.404L131.648 216.101C131.68 215.853 131.648 215.692 131.547 215.599C131.444 215.511 131.295 215.447 131.099 215.424C130.964 215.406 130.832 215.392 130.691 215.365C130.556 215.351 130.424 215.336 130.298 215.327C130.171 215.319 130.053 215.304 129.953 215.304C129.849 215.295 129.763 215.295 129.7 215.286L129.663 215.278C129.614 215.272 129.582 215.254 129.559 215.231C129.536 215.208 129.53 215.167 129.536 215.103L129.631 214.417C129.645 214.321 129.7 214.265 129.812 214.251C129.976 214.233 130.186 214.218 130.456 214.218C130.723 214.218 130.996 214.233 131.28 214.274C131.579 214.315 131.846 214.385 132.082 214.481C132.317 214.577 132.504 214.715 132.654 214.872C132.803 215.033 132.904 215.231 132.97 215.462C133.03 215.695 133.039 215.963 132.998 216.276L132.59 219.313C132.582 219.363 132.562 219.392 132.527 219.424V219.424ZM131.045 217.154C130.901 217.128 130.777 217.128 130.674 217.145C130.582 217.154 130.493 217.183 130.433 217.224C130.369 217.265 130.321 217.329 130.289 217.399C130.26 217.481 130.234 217.568 130.22 217.671L130.211 217.749C130.188 217.933 130.211 218.053 130.298 218.117C130.375 218.181 130.51 218.222 130.683 218.254C130.809 218.269 130.935 218.269 131.053 218.254C131.168 218.228 131.289 218.205 131.389 218.167L131.522 217.215L131.045 217.154V217.154Z" fill="#91DABF"/>
<path d="M136.518 219.985L136.047 220.008C135.857 220.008 135.639 219.99 135.386 219.961C134.8 219.879 134.352 219.626 134.044 219.211C133.74 218.797 133.636 218.237 133.728 217.536L133.826 216.827C133.918 216.133 134.171 215.622 134.573 215.304C134.972 214.983 135.475 214.866 136.064 214.954C136.314 214.983 136.524 215.033 136.713 215.088C136.894 215.143 137.044 215.19 137.161 215.24C137.225 215.263 137.265 215.295 137.288 215.319C137.311 215.351 137.317 215.392 137.311 215.453L137.21 216.211C137.202 216.261 137.184 216.29 137.147 216.308C137.116 216.331 137.075 216.337 137.029 216.331H137.012C136.857 216.29 136.713 216.261 136.572 216.229C136.432 216.197 136.242 216.165 135.998 216.133C135.906 216.115 135.811 216.124 135.725 216.141C135.639 216.156 135.561 216.203 135.489 216.267C135.417 216.34 135.357 216.427 135.3 216.556C135.245 216.673 135.208 216.833 135.185 217.017L135.09 217.726C135.064 217.919 135.058 218.07 135.081 218.205C135.096 218.342 135.139 218.444 135.182 218.531C135.231 218.619 135.3 218.683 135.38 218.724C135.458 218.765 135.544 218.797 135.639 218.811C135.874 218.841 136.07 218.87 136.213 218.876L136.667 218.899H136.682C136.731 218.908 136.762 218.922 136.794 218.957C136.817 218.987 136.831 219.019 136.822 219.065L136.722 219.824C136.708 219.871 136.693 219.92 136.659 219.935C136.63 219.961 136.581 219.976 136.518 219.985V219.985ZM142.304 216.069L140.46 217.997L141.687 220.574C141.692 220.589 141.701 220.612 141.692 220.644C141.687 220.717 141.646 220.749 141.569 220.74L140.305 220.565C140.256 220.556 140.224 220.551 140.193 220.524C140.164 220.51 140.138 220.469 140.115 220.413L139.181 218.254L138.923 220.192C138.914 220.238 138.891 220.279 138.86 220.308C138.819 220.343 138.779 220.358 138.733 220.349L137.719 220.206C137.673 220.198 137.633 220.177 137.604 220.133C137.572 220.095 137.564 220.046 137.564 220.008L138.397 213.842C138.403 213.795 138.426 213.763 138.466 213.731C138.506 213.702 138.552 213.69 138.592 213.702L139.604 213.842C139.652 213.851 139.684 213.874 139.716 213.906C139.744 213.947 139.753 213.985 139.744 214.035L139.27 217.58L140.807 215.809C140.848 215.762 140.888 215.739 140.934 215.721C140.974 215.713 141.014 215.707 141.043 215.713L142.238 215.882C142.325 215.882 142.365 215.923 142.353 215.984C142.353 216.016 142.339 216.042 142.307 216.066L142.304 216.069Z" fill="#91DABF"/>
<path d="M103.287 214.195C103.287 213.536 103.813 212.999 104.465 212.999C105.117 212.999 105.643 213.536 105.643 214.195C105.643 215.672 106.821 216.868 108.272 216.868C109.726 216.868 110.904 215.672 110.904 214.195C110.904 212.722 109.726 211.525 108.272 211.525C107.623 211.525 107.094 210.991 107.094 210.329C107.094 209.666 107.623 209.132 108.272 209.132C111.022 209.132 113.26 211.405 113.26 214.195C113.26 216.988 111.019 219.261 108.272 219.261C105.525 219.261 103.287 216.982 103.287 214.195Z" fill="#91DABF"/>
<path d="M107.634 213.533L105.347 211.157C105.106 210.904 104.98 210.545 105.017 210.194C105.057 209.83 105.247 209.512 105.546 209.319L108.568 207.32C109.108 206.964 109.838 207.116 110.2 207.67C110.553 208.225 110.404 208.963 109.855 209.334L108.034 210.536L109.312 211.866C109.769 212.336 109.76 213.095 109.298 213.559C109.068 213.781 108.772 213.892 108.473 213.892C108.166 213.892 107.861 213.775 107.634 213.533V213.533Z" fill="#91DABF"/>
<path d="M219.19 183.538C214.722 185.414 205.692 188.899 203.244 193.46C201.232 197.2 202.057 202.567 204.427 206.667C206.798 210.763 213.811 210.979 223.571 207.344C233.331 203.708 237.382 198.835 237.115 191.236C236.902 185.143 232.018 178.945 228.8 180.142C225.123 181.507 222.502 182.143 219.19 183.538V183.538Z" fill="#FFEBE0"/>
<path d="M200.457 170.661C198.698 174.527 199.221 180.868 201.865 184.799C204.499 188.732 210.24 188.403 219.735 184.122C229.234 179.832 233.865 179.561 235.184 170.725C235.845 166.322 233.113 157.74 228.777 155.207C227.312 154.337 216.339 158.866 213.121 160.477C208.786 162.645 202.6 165.94 200.457 170.661V170.661Z" fill="#FFEBE0"/>
<path d="M222.514 202.47C222.419 202.576 222.315 202.669 222.206 202.756C222.12 202.829 222.034 202.894 221.925 202.958C220.888 203.603 219.741 204.09 218.649 204.621C217 205.421 215.555 205.642 213.687 206.083C212.32 206.404 210.843 206.515 209.579 205.771C208.616 205.205 207.947 204.224 207.499 203.188C206.706 201.37 205.939 199.074 206.266 197.072C206.706 194.353 209.944 192.663 212.007 191.394C212.211 191.265 212.415 191.146 212.619 191.026C213.759 190.349 217.675 189.001 219.066 188.779L219.256 188.756C219.465 188.738 219.638 188.77 219.764 188.858C221.35 189.888 222.229 191.881 222.818 193.603C224.028 197.215 223.988 200.022 223.085 201.688C222.922 201.992 222.732 202.249 222.511 202.47H222.514ZM218.555 181.148C218.336 181.426 218.109 181.665 217.848 181.858C217.756 181.922 217.661 181.986 217.552 182.041C216.466 182.64 210.421 184.408 208.522 184.752C203.361 185.709 202.143 179.401 202.64 176.313C203.166 172.984 204.89 171.3 207.588 169.576C209.496 168.365 213.601 166.57 215.94 166.617H216.003C216.216 166.625 216.388 166.666 216.515 166.768C218.014 168.006 218.736 170.212 219.184 172.111C220.095 176.074 219.827 179.082 218.799 180.79C218.721 180.915 218.635 181.035 218.555 181.148V181.148Z" fill="#FFF8F4"/>
<path d="M215.075 185.727C214.989 185.525 215.075 185.289 215.271 185.202L227.364 179.631C227.559 179.544 227.795 179.631 227.881 179.83C227.967 180.028 227.881 180.267 227.685 180.355L215.592 185.925C215.546 185.949 215.489 185.954 215.434 185.954C215.285 185.954 215.147 185.867 215.075 185.727V185.727Z" fill="#EFC3AC"/>
<path d="M218.557 181.148C215.489 177.288 214.65 171.361 215.943 166.625H216.006C216.219 166.634 216.391 166.672 216.517 166.777C218.017 168.014 218.738 170.22 219.187 172.117C220.097 176.074 219.83 179.082 218.802 180.79C218.721 180.915 218.635 181.035 218.557 181.148V181.148ZM222.511 202.47C221.948 201.569 221.514 200.548 221.146 199.471C219.977 196.027 219.02 192.424 219.072 188.779L219.261 188.756C219.474 188.738 219.646 188.77 219.773 188.858C221.359 189.888 222.238 191.881 222.827 193.603C224.028 197.215 223.988 200.022 223.085 201.688C222.922 201.992 222.732 202.249 222.511 202.47V202.47Z" fill="#FFD3C4"/>
<path d="M210.484 214.507C204.72 217.25 199.758 221.254 201.163 227.901C202.795 235.64 211.237 235.538 217.997 232.634C222.057 230.898 227.272 230.387 228.95 225.713C230.498 221.4 229.941 215.348 226.007 213.002C224.703 212.237 223.235 211.963 221.744 211.948C218.264 211.907 213.348 213.145 210.481 214.507H210.484Z" fill="#FFEBE0"/>
<path d="M217.414 228.613C217.342 228.747 217.256 228.867 217.178 228.987C216.299 230.168 214.799 230.583 213.282 231.181C211.837 231.756 210.142 232.249 208.524 232.153C206.16 232.01 204.686 229.634 204.238 227.288C203.508 223.454 206.49 220.904 209.513 219.34C210.441 218.861 213.156 218.117 214.397 217.895C214.555 217.863 214.696 217.854 214.822 217.854C214.995 217.863 215.144 217.895 215.253 217.974C216.517 218.949 217.138 220.688 217.514 222.176C217.931 223.86 218.221 225.751 217.845 227.481C217.75 227.927 217.609 228.295 217.414 228.613Z" fill="#FFF8F4"/>
<path d="M217.414 228.613C216.115 227.481 215.127 226.104 214.592 224.227C214.018 222.202 213.794 219.92 214.397 217.886C214.555 217.857 214.696 217.849 214.822 217.849C214.995 217.854 215.144 217.886 215.253 217.965C216.517 218.94 217.138 220.679 217.514 222.167C217.931 223.86 218.221 225.751 217.845 227.478C217.75 227.927 217.609 228.295 217.414 228.613Z" fill="#FFD3C4"/>
<path d="M73.9669 180.002C73.4555 181.986 70.5364 201.537 65.2125 238.645L56.3719 275.909C44.003 262.389 37.6591 250.274 37.3517 239.553C36.8978 223.477 40.4317 201.379 42.5119 193.947C44.8621 185.584 48.4248 167.553 52.4156 160.582C56.4035 153.614 64.3017 143.389 65.9365 138.866C66.1635 138.245 66.4451 137.352 66.7841 136.275C68.8815 129.563 74.0158 116.628 75.8345 116.108C76.1419 116.021 76.5125 115.942 76.9521 115.901C79.5351 115.653 85.0773 116.601 87.5684 127.672C90.6598 141.405 83.8994 152.934 81.8278 158.557C79.7534 164.189 74.7369 177.028 73.9669 180.002V180.002Z" fill="#FFEBE0"/>
<path d="M75.8345 116.103C74.3261 116.531 70.1658 125.143 68.0138 132.233C67.9046 132.607 67.7839 132.966 67.6834 133.325C67.3616 134.393 67.057 135.397 66.7812 136.269C68.893 137.264 72.6941 138.166 74.7053 137.098C74.7341 137.089 74.7657 137.066 74.7973 137.057C75.8431 136.482 76.7452 135.63 77.3342 134.489C78.6444 131.985 81.19 125.049 81.1411 122.298C81.0808 119.298 76.1419 116.012 75.8345 116.1V116.103Z" fill="#FFF8F4"/>
<path d="M65.9164 163.803C65.8992 163.78 64.0087 161.373 61.5033 160.351C58.9893 159.33 54.7974 159.888 54.7572 159.896C54.5474 159.928 54.3434 159.782 54.3176 159.555C54.2889 159.339 54.4354 159.132 54.6595 159.108C54.8376 159.082 59.1014 158.51 61.8021 159.607C64.5115 160.707 66.4566 163.197 66.537 163.299C66.6692 163.474 66.6376 163.722 66.4738 163.856C66.3962 163.92 66.31 163.952 66.221 163.952C66.1061 163.952 65.994 163.897 65.9164 163.801V163.803Z" fill="#EFC3AC"/>
<path d="M61.2935 163.232C61.2504 163.223 57.1189 162.219 55.9639 161.986C54.8003 161.746 53.6682 161.452 53.6596 161.446C53.447 161.387 53.3206 161.174 53.3752 160.959C53.4326 160.743 53.651 160.614 53.855 160.67C53.8636 160.67 54.9698 160.967 56.1162 161.207C57.2855 161.446 61.2993 162.418 61.4631 162.458C61.6757 162.505 61.8021 162.721 61.7532 162.937C61.7245 163.118 61.5579 163.238 61.3855 163.238C61.3567 163.238 61.3223 163.238 61.2907 163.232H61.2935Z" fill="#EFC3AC"/>
<path d="M63.5604 166.698C63.5518 166.69 62.4457 166.085 59.3829 165.797C56.1161 165.493 52.3322 163.518 52.1771 163.43C51.9788 163.322 51.907 163.086 52.0104 162.896C52.1139 162.695 52.3495 162.622 52.5391 162.727C52.5764 162.744 56.346 164.723 59.4547 165.009C62.7301 165.312 63.9081 165.98 63.9541 166.013C64.1408 166.123 64.204 166.363 64.0948 166.555C64.023 166.684 63.8908 166.754 63.7587 166.754C63.6869 166.754 63.6236 166.739 63.5604 166.698V166.698Z" fill="#EFC3AC"/>
<path d="M66.7812 136.266C67.057 135.399 67.3558 134.393 67.6834 133.325C67.7868 132.966 67.9046 132.607 68.0138 132.233C70.1744 132.966 73.3004 135.28 74.7053 137.098C72.6941 138.157 68.893 137.255 66.7812 136.269V136.266Z" fill="#FFD3C4"/>
<path fill-rule="evenodd" clip-rule="evenodd" d="M157.627 91.6465C130.568 87.9697 106.336 101.86 103.6 122.613C102.647 129.835 104.382 137.159 108.617 143.885L99.1155 158.353C98.4949 159.298 98.6673 160.483 99.5637 161.382C100.181 162 101.066 162.409 102.006 162.537C102.428 162.596 102.856 162.596 103.282 162.534L125.278 159.403C131.95 163.237 139.664 165.823 147.703 166.917C174.757 170.597 198.994 156.707 201.729 135.951C204.465 115.204 184.68 95.329 157.627 91.6465ZM122.652 135.843C120.661 135.572 119.21 134.116 119.411 132.586L121.445 117.165C121.647 115.639 123.422 114.62 125.416 114.889C127.407 115.16 128.858 116.619 128.657 118.145L126.623 133.567C126.422 135.096 124.646 136.114 122.652 135.843ZM183.103 122.735C185.094 123.007 186.545 124.466 186.344 125.992L184.31 141.414C184.109 142.943 182.333 143.961 180.342 143.69C178.351 143.421 176.897 141.962 177.101 140.433L179.132 125.011C179.333 123.485 181.115 122.467 183.103 122.735V122.735ZM168.099 125.201C170.091 125.472 171.541 126.931 171.34 128.457L170.473 135.029C170.272 136.555 168.496 137.576 166.502 137.305C164.514 137.034 163.063 135.575 163.264 134.048L164.129 127.477C164.33 125.951 166.111 124.93 168.099 125.201ZM137.659 133.38C135.668 133.109 134.217 131.65 134.421 130.124L135.285 123.552C135.486 122.026 137.262 121.005 139.256 121.276C141.247 121.548 142.698 123.007 142.497 124.533L141.629 131.104C141.428 132.63 139.653 133.652 137.659 133.38ZM151.07 115.154C151.271 113.628 153.053 112.61 155.041 112.878C157.035 113.149 158.483 114.608 158.282 116.135L154.685 143.424C154.484 144.953 152.708 145.971 150.714 145.7C148.726 145.429 147.272 143.973 147.473 142.444L151.07 115.154V115.154Z" fill="white"/>
</svg>
