<svg width="301" height="349" viewBox="0 0 301 349" fill="none" xmlns="http://www.w3.org/2000/svg">
<path fill-rule="evenodd" clip-rule="evenodd" d="M136.947 26.5059H165.663V53.0125H136.947V26.5059Z" fill="#75E9BE"/>
<path fill-rule="evenodd" clip-rule="evenodd" d="M150.203 349C233.158 349 300.405 281.748 300.405 198.798C300.405 115.843 233.158 48.595 150.203 48.595C67.2477 48.595 0 115.843 0 198.798C0 281.748 67.2477 348.995 150.203 348.995V349Z" fill="#28C38A"/>
<path fill-rule="evenodd" clip-rule="evenodd" d="M149.098 318.074C214.363 318.074 267.271 265.162 267.271 199.901C267.271 134.631 214.358 81.7285 149.098 81.7285C83.8276 81.7285 30.9202 134.636 30.9202 199.901C30.9202 265.167 83.8326 318.074 149.103 318.074H149.098Z" fill="#FFEA9B"/>
<path fill-rule="evenodd" clip-rule="evenodd" d="M123.696 0H178.914V30.9202H123.696V0Z" fill="#1694FF"/>
<path fill-rule="evenodd" clip-rule="evenodd" d="M82.8289 127.812L152.407 198.798V99.3989C125.32 99.3989 100.756 110.234 82.8289 127.812Z" fill="#ED593B"/>
<path fill-rule="evenodd" clip-rule="evenodd" d="M151.143 99.6069L150.151 199.004L220.437 128.718C201.284 109.565 176.252 99.8565 151.146 99.6104L151.143 99.6069Z" fill="#FFC900"/>
<path fill-rule="evenodd" clip-rule="evenodd" d="M116.691 222.366L213.527 125.53C216.979 122.078 222.572 122.078 226.021 125.527C229.473 128.979 229.473 134.572 226.024 138.021L129.188 234.857C125.736 238.309 120.143 238.309 116.691 234.857C113.242 231.408 113.242 225.815 116.691 222.366V222.366Z" fill="#1694FF"/>
<path fill-rule="evenodd" clip-rule="evenodd" d="M152.412 223.094C165.829 223.094 176.71 212.214 176.71 198.797C176.71 185.38 165.829 174.5 152.412 174.5C138.995 174.5 128.12 185.37 128.12 198.797C128.12 212.214 139 223.094 152.417 223.094H152.412Z" fill="#1694FF"/>
</svg>
