<svg width="321" height="351" viewBox="0 0 321 351" fill="none" xmlns="http://www.w3.org/2000/svg">
<path fill-rule="evenodd" clip-rule="evenodd" d="M143.891 73.7886C164.264 73.7886 180.785 57.2726 180.785 36.8943C180.785 16.5211 164.269 0 143.891 0C123.512 0 106.991 16.516 106.991 36.8943C106.991 57.2726 123.507 73.7886 143.891 73.7886V73.7886Z" fill="#28C38A"/>
<path fill-rule="evenodd" clip-rule="evenodd" d="M188.163 81.1719C208.541 81.1719 225.062 64.656 225.062 44.2725C225.062 23.8993 208.546 7.37817 188.163 7.37817C167.79 7.37817 151.269 23.8941 151.269 44.2725C151.269 64.6508 167.785 81.1719 188.163 81.1719Z" fill="#28C38A"/>
<path d="M160.5 350.501C71.8627 350.501 0.010437 278.648 0.010437 190.001C0.010437 101.368 71.8627 29.511 160.5 29.511C249.137 29.511 321 101.363 321 190.006C321 278.643 249.143 350.501 160.5 350.501Z" fill="#FFC900"/>
<path d="M160.505 350.501C86.6648 350.501 24.4788 300.627 5.77277 232.731C42.0768 195.986 97.8946 172.46 160.505 172.46C223.116 172.46 278.933 195.992 315.237 232.736C296.531 300.627 234.345 350.501 160.5 350.501H160.505Z" fill="#FFDE64"/>
<path d="M160.51 237.986C212.098 237.986 257.483 258.25 283.774 288.911H37.2411C63.5321 258.25 108.917 237.986 160.51 237.986V237.986Z" fill="#FFEA9B"/>
<path fill-rule="evenodd" clip-rule="evenodd" d="M148.354 237.514C148.354 226.942 143.901 216.856 136.099 209.727L102.839 179.377C99.8984 176.695 96.0568 175.204 92.0702 175.204H37.64V168.939H86.5459C88.2648 168.939 89.0828 166.822 87.8143 165.662L50.1745 131.32L58.6913 122.803L145.206 201.759C146.418 202.862 148.354 202.007 148.354 200.371C148.354 182.375 141.209 165.124 128.488 152.403L71.0498 94.9643L84.8477 81.1665L160.267 156.586C166.304 162.623 176.022 162.84 182.328 157.088L238.042 106.246L244.524 112.723L193.387 159.392C192.124 160.552 192.937 162.664 194.656 162.664H275.874V168.934H189.131C185.145 168.934 181.308 170.425 178.362 173.112C175.049 176.136 173.159 180.418 173.159 184.906V279.275H148.359V237.514H148.354Z" fill="#92CCFE"/>
<path d="M14.3725 123.554C26.6171 96.6828 46.0531 73.7727 70.2161 57.2982C74.1872 41.3362 88.6063 29.511 105.801 29.511C112.081 29.511 117.993 31.1005 123.166 33.8807C135.146 31.0331 147.639 29.511 160.495 29.511C173.076 29.511 185.326 30.9658 197.068 33.7047C202.157 31.028 207.951 29.511 214.102 29.511C230.965 29.511 245.166 40.9013 249.448 56.4077C274.227 72.9392 294.16 96.1858 306.622 123.554H14.3725Z" fill="#2B9260"/>
<path d="M284.323 177.891C264.157 177.891 247.802 161.608 247.657 141.478C241.081 147.722 232.197 151.559 222.417 151.559C209.396 151.559 197.969 144.766 191.456 134.541C184.948 144.766 173.521 151.559 160.5 151.559C147.479 151.559 136.057 144.766 129.539 134.541C123.036 144.766 111.604 151.559 98.5832 151.559C88.8031 151.559 79.9186 147.722 73.3433 141.478C73.1984 161.619 56.8429 177.891 36.6768 177.891C16.4124 177.891 0 161.468 0 141.214C0 126.521 8.64629 113.857 21.1239 108.001C16.9146 102.026 14.4295 94.747 14.4295 86.8773C14.4295 66.6232 30.8522 50.2004 51.1063 50.2004C69.0202 50.2004 83.9311 63.056 87.1411 80.0431C90.7394 78.8575 94.5915 78.2051 98.5988 78.2051C111.62 78.2051 123.036 84.9979 129.555 95.2233C136.063 84.9979 147.484 78.2051 160.505 78.2051C173.526 78.2051 184.948 84.9979 191.466 95.2233C197.969 84.9979 209.401 78.2051 222.422 78.2051C224.493 78.2051 226.533 78.3915 228.516 78.7228C232.223 62.3881 246.818 50.2004 264.261 50.2004C284.52 50.2004 300.937 66.6232 300.937 86.8773C300.937 93.9859 298.908 100.629 295.398 106.241C310.241 110.937 321 124.817 321 141.214C321 161.468 304.582 177.891 284.323 177.891Z" fill="#28C38A"/>
<path fill-rule="evenodd" clip-rule="evenodd" d="M160.51 350.5C104.268 350.5 54.7873 321.569 26.1355 277.778H294.885C266.228 321.569 216.753 350.5 160.51 350.5V350.5Z" fill="#1694FF"/>
</svg>
