<?xml version="1.0" encoding="UTF-8" standalone="no" ?>
<!DOCTYPE svg PUBLIC "-//W3C//DTD SVG 1.1//EN" "http://www.w3.org/Graphics/SVG/1.1/DTD/svg11.dtd">
<svg xmlns="http://www.w3.org/2000/svg" xmlns:xlink="http://www.w3.org/1999/xlink" version="1.1" width="430" height="430" viewBox="0 0 430 430" xml:space="preserve">
<desc>Created with Fabric.js 4.6.0</desc>
<defs>
</defs>
<g transform="matrix(1 0 0 1 224.11 215.28)" id="IyO7O_nL12WSBnXpyK3MY" clip-path="url(#CLIPPATH_210)"  >
<clipPath id="CLIPPATH_210" >
	<rect transform="matrix(1 0 0 1 -9.45 -17.89)" id="clip0_6_40" x="-239.5" y="-345.5" rx="0" ry="0" width="479" height="691" />
</clipPath>
<path style="stroke: none; stroke-width: 1; stroke-dasharray: none; stroke-linecap: butt; stroke-dashoffset: 0; stroke-linejoin: miter; stroke-miterlimit: 4; fill: rgb(247,164,145); fill-rule: evenodd; opacity: 1;" vector-effect="non-scaling-stroke"  transform=" translate(-248.95, -363.39)" d="M 248.95 561.298 C 360.334 561.298 450.63 472.691 450.63 363.39 C 450.63 254.089 360.334 165.482 248.95 165.482 C 137.565 165.482 47.2696 254.089 47.2696 363.39 C 47.2696 472.691 137.565 561.298 248.95 561.298 Z" stroke-linecap="round" />
</g>
<g transform="matrix(1 0 0 1 102.26 316.35)" id="WtPIT3_H_w_wFluT3tLdd" clip-path="url(#CLIPPATH_211)"  >
<clipPath id="CLIPPATH_211" >
	<rect transform="matrix(1 0 0 1 112.4 -118.96)" id="clip0_6_40" x="-239.5" y="-345.5" rx="0" ry="0" width="479" height="691" />
</clipPath>
<path style="stroke: none; stroke-width: 1; stroke-dasharray: none; stroke-linecap: butt; stroke-dashoffset: 0; stroke-linejoin: miter; stroke-miterlimit: 4; fill: rgb(99,104,137); fill-rule: evenodd; opacity: 1;" vector-effect="non-scaling-stroke"  transform=" translate(-127.1, -464.46)" d="M 146.959 476.656 L 107.569 476.656 C 107.569 476.656 101.639 453.359 126.461 452.299 C 151.273 451.241 146.959 476.656 146.959 476.656 Z" stroke-linecap="round" />
</g>
<g transform="matrix(1 0 0 1 194.61 334.83)" id="fw0RBVyCHAZr5C8jLMFCz" clip-path="url(#CLIPPATH_212)"  >
<clipPath id="CLIPPATH_212" >
	<rect transform="matrix(1 0 0 1 20.05 -137.44)" id="clip0_6_40" x="-239.5" y="-345.5" rx="0" ry="0" width="479" height="691" />
</clipPath>
<path style="stroke: none; stroke-width: 1; stroke-dasharray: none; stroke-linecap: butt; stroke-dashoffset: 0; stroke-linejoin: miter; stroke-miterlimit: 4; fill: rgb(255,233,156); fill-rule: evenodd; opacity: 1;" vector-effect="non-scaling-stroke"  transform=" translate(-219.45, -482.94)" d="M 216.8 446.643 C 249.155 490.302 279.491 518.083 273.423 525.024 C 267.356 531.972 248.146 522.05 231.97 504.191 C 248.146 523.043 252.191 526.017 243.091 529 C 233.987 531.974 190.51 494.269 174.333 469.462 C 158.155 444.66 167.257 436.724 167.257 436.724 L 216.8 446.643 L 216.8 446.643 Z" stroke-linecap="round" />
</g>
<g transform="matrix(1 0 0 1 136.59 229.59)" id="CGlCdNCXEne73lgEhPmQf" clip-path="url(#CLIPPATH_213)"  >
<clipPath id="CLIPPATH_213" >
	<rect transform="matrix(1 0 0 1 78.07 -32.2)" id="clip0_6_40" x="-239.5" y="-345.5" rx="0" ry="0" width="479" height="691" />
</clipPath>
<path style="stroke: none; stroke-width: 1; stroke-dasharray: none; stroke-linecap: butt; stroke-dashoffset: 0; stroke-linejoin: miter; stroke-miterlimit: 4; fill: rgb(255,201,0); fill-rule: evenodd; opacity: 1;" vector-effect="non-scaling-stroke"  transform=" translate(-161.43, -377.7)" d="M 201.39 382.152 C 209.042 374.057 224.953 309.32 168.991 294.869 C 127.094 284.048 82.991 319.146 101.555 344.883 C 116.705 365.893 84.8893 423.715 124.227 449.204 C 155.443 469.431 205.797 466.096 219.849 443.106 C 235.019 418.303 217.57 406.957 201.39 382.155" stroke-linecap="round" />
</g>
<g transform="matrix(1 0 0 1 172.57 261.15)" id="IvuON-saVLT-CdCoWkrRR" clip-path="url(#CLIPPATH_214)"  >
<clipPath id="CLIPPATH_214" >
	<rect transform="matrix(1 0 0 1 42.09 -63.76)" id="clip0_6_40" x="-239.5" y="-345.5" rx="0" ry="0" width="479" height="691" />
</clipPath>
<path style="stroke: none; stroke-width: 1; stroke-dasharray: none; stroke-linecap: butt; stroke-dashoffset: 0; stroke-linejoin: miter; stroke-miterlimit: 4; fill: rgb(255,233,156); fill-rule: evenodd; opacity: 1;" vector-effect="non-scaling-stroke"  transform=" translate(-197.41, -409.26)" d="M 216.556 456.718 C 230.188 458.511 239.062 440.129 236.029 419.294 C 232.996 398.459 209.742 359.763 182.439 361.747 C 155.142 363.732 152.107 398.459 167.273 417.311 C 182.439 436.162 204.997 455.193 216.556 456.718 Z" stroke-linecap="round" />
</g>
<g transform="matrix(1 0 0 1 51.26 207.47)" id="uxgNAy8Etj-6oVjjlxh6C" clip-path="url(#CLIPPATH_215)"  >
<clipPath id="CLIPPATH_215" >
	<rect transform="matrix(1 0 0 1 163.4 -10.08)" id="clip0_6_40" x="-239.5" y="-345.5" rx="0" ry="0" width="479" height="691" />
</clipPath>
<path style="stroke: none; stroke-width: 1; stroke-dasharray: none; stroke-linecap: butt; stroke-dashoffset: 0; stroke-linejoin: miter; stroke-miterlimit: 4; fill: rgb(99,104,137); fill-rule: evenodd; opacity: 1;" vector-effect="non-scaling-stroke"  transform=" translate(-76.1, -355.58)" d="M 120.091 355.396 C 118.127 338.523 112.644 320.844 104.848 322.06 C 82.3711 321.067 29.0386 340.534 29.0386 386.777 C 29.0386 396.192 45.8431 374.65 61.7633 374.65 C 77.6858 374.65 109.658 383.454 119.834 379.608 C 123.986 374.346 124.43 360.438 120.091 355.396 Z" stroke-linecap="round" />
</g>
<g transform="matrix(1 0 0 1 63.95 217.9)" id="v85RzXIfHT3khn8cydAnH" clip-path="url(#CLIPPATH_216)"  >
<clipPath id="CLIPPATH_216" >
	<rect transform="matrix(1 0 0 1 150.71 -20.51)" id="clip0_6_40" x="-239.5" y="-345.5" rx="0" ry="0" width="479" height="691" />
</clipPath>
<path style="stroke: none; stroke-width: 1; stroke-dasharray: none; stroke-linecap: butt; stroke-dashoffset: 0; stroke-linejoin: miter; stroke-miterlimit: 4; fill: rgb(242,135,113); fill-rule: nonzero; opacity: 1;" vector-effect="non-scaling-stroke"  transform=" translate(-88.79, -366.01)" d="M 120.294 353.64 C 121.215 353.64 121.96 354.369 121.96 355.273 C 121.96 356.174 121.215 356.905 120.296 356.905 C 99.294 356.905 70.2407 365.342 58.5159 377.863 C 57.8915 378.527 56.8386 378.57 56.1618 377.959 C 55.4827 377.349 55.4394 376.316 56.0615 375.652 C 68.5452 362.321 98.4531 353.638 120.294 353.638 L 120.294 353.64 Z" stroke-linecap="round" />
</g>
<g transform="matrix(1 0 0 1 136.79 316.35)" id="I0Oh2O1sghSmrP_Jx3vKm" clip-path="url(#CLIPPATH_217)"  >
<clipPath id="CLIPPATH_217" >
	<rect transform="matrix(1 0 0 1 77.87 -118.96)" id="clip0_6_40" x="-239.5" y="-345.5" rx="0" ry="0" width="479" height="691" />
</clipPath>
<path style="stroke: none; stroke-width: 1; stroke-dasharray: none; stroke-linecap: butt; stroke-dashoffset: 0; stroke-linejoin: miter; stroke-miterlimit: 4; fill: rgb(99,104,137); fill-rule: evenodd; opacity: 1;" vector-effect="non-scaling-stroke"  transform=" translate(-161.63, -464.46)" d="M 181.491 476.656 L 142.103 476.656 C 142.103 476.656 136.168 453.359 160.985 452.299 C 185.805 451.241 181.491 476.656 181.491 476.656" stroke-linecap="round" />
</g>
<g transform="matrix(1 0 0 1 114.1 192.09)" id="mZ-TVGh2thtpmp1pnUV9-" clip-path="url(#CLIPPATH_218)"  >
<clipPath id="CLIPPATH_218" >
	<rect transform="matrix(1 0 0 1 100.56 5.3)" id="clip0_6_40" x="-239.5" y="-345.5" rx="0" ry="0" width="479" height="691" />
</clipPath>
<path style="stroke: none; stroke-width: 1; stroke-dasharray: none; stroke-linecap: butt; stroke-dashoffset: 0; stroke-linejoin: miter; stroke-miterlimit: 4; fill: rgb(31,36,68); fill-rule: evenodd; opacity: 1;" vector-effect="non-scaling-stroke"  transform=" translate(-138.94, -340.2)" d="M 132.244 340.2 C 132.244 343.832 135.243 346.775 138.942 346.775 C 142.643 346.775 145.633 343.832 145.633 340.2 C 145.633 336.578 142.643 333.63 138.942 333.63 C 135.243 333.63 132.242 336.578 132.242 340.2" stroke-linecap="round" />
</g>
<g transform="matrix(1 0 0 1 225.35 257.59)" id="sOnKqE3C-D27Vt3UaVU0U" clip-path="url(#CLIPPATH_219)"  >
<clipPath id="CLIPPATH_219" >
	<rect transform="matrix(1 0 0 1 -10.69 -60.2)" id="clip0_6_40" x="-239.5" y="-345.5" rx="0" ry="0" width="479" height="691" />
</clipPath>
<path style="stroke: none; stroke-width: 1; stroke-dasharray: none; stroke-linecap: butt; stroke-dashoffset: 0; stroke-linejoin: miter; stroke-miterlimit: 4; fill: rgb(80,161,255); fill-rule: evenodd; opacity: 1;" vector-effect="non-scaling-stroke"  transform=" translate(-250.19, -405.7)" d="M 316.724 470.886 C 267.682 480.641 226.346 458.287 202.342 429.35 C 177.334 399.206 177.997 352.826 200.939 342.083 C 227.875 329.464 256.477 348.606 275.811 384.205 C 292.825 415.541 305.243 453.909 316.726 470.884" stroke-linecap="round" />
</g>
<g transform="matrix(1 0 0 1 301.15 248.47)" id="5mCKemJ4tYJWu059urPyq" clip-path="url(#CLIPPATH_220)"  >
<clipPath id="CLIPPATH_220" >
	<rect transform="matrix(1 0 0 1 -86.49 -51.08)" id="clip0_6_40" x="-239.5" y="-345.5" rx="0" ry="0" width="479" height="691" />
</clipPath>
<path style="stroke: none; stroke-width: 1; stroke-dasharray: none; stroke-linecap: butt; stroke-dashoffset: 0; stroke-linejoin: miter; stroke-miterlimit: 4; fill: rgb(80,161,255); fill-rule: evenodd; opacity: 1;" vector-effect="non-scaling-stroke"  transform=" translate(-325.99, -396.58)" d="M 299.771 427.244 C 319.843 467.053 363.388 520.189 399.524 530.688 C 365.296 544.575 298.732 527.034 256.055 423.496 C 263.102 385.938 299.771 427.244 299.771 427.244 L 299.771 427.244 Z M 262.641 261.699 C 325.504 243.782 380.632 302.94 348.91 310.919 C 323.706 317.258 335.693 261.847 282.627 272.048 C 229.561 282.25 262.641 261.699 262.641 261.699" stroke-linecap="round" />
</g>
<g transform="matrix(1 0 0 1 292.9 122.4)" id="LRjsalw5iNeV35bWsoypL" clip-path="url(#CLIPPATH_221)"  >
<clipPath id="CLIPPATH_221" >
	<rect transform="matrix(1 0 0 1 -78.24 74.99)" id="clip0_6_40" x="-239.5" y="-345.5" rx="0" ry="0" width="479" height="691" />
</clipPath>
<path style="stroke: none; stroke-width: 1; stroke-dasharray: none; stroke-linecap: butt; stroke-dashoffset: 0; stroke-linejoin: miter; stroke-miterlimit: 4; fill: rgb(125,188,255); fill-rule: evenodd; opacity: 1;" vector-effect="non-scaling-stroke"  transform=" translate(-317.74, -270.51)" d="M 264.31 258.702 C 331.473 221.936 395.778 274.929 374.215 291.658 C 350.348 310.179 333.701 245.361 286.513 267.147 C 237.583 289.739 264.31 258.702 264.31 258.702" stroke-linecap="round" />
</g>
<g transform="matrix(1 0 0 1 300.81 348.74)" id="9pWl1LYTaEDC0Sau3Iq4l" clip-path="url(#CLIPPATH_222)"  >
<clipPath id="CLIPPATH_222" >
	<rect transform="matrix(1 0 0 1 -86.15 -151.35)" id="clip0_6_40" x="-239.5" y="-345.5" rx="0" ry="0" width="479" height="691" />
</clipPath>
<path style="stroke: none; stroke-width: 1; stroke-dasharray: none; stroke-linecap: butt; stroke-dashoffset: 0; stroke-linejoin: miter; stroke-miterlimit: 4; fill: rgb(80,161,255); fill-rule: evenodd; opacity: 1;" vector-effect="non-scaling-stroke"  transform=" translate(-325.65, -496.85)" d="M 295.947 462.149 C 309.825 498.644 370.886 546.581 408.077 552.574 C 375.881 570.544 276.522 548.759 243.216 449.619 C 245.436 411.491 295.949 462.149 295.949 462.149" stroke-linecap="round" />
</g>
<g transform="matrix(1 0 0 1 211.58 313.26)" id="wXczo7nDYHSFT5QZfv9FE" clip-path="url(#CLIPPATH_223)"  >
<clipPath id="CLIPPATH_223" >
	<rect transform="matrix(1 0 0 1 3.08 -115.87)" id="clip0_6_40" x="-239.5" y="-345.5" rx="0" ry="0" width="479" height="691" />
</clipPath>
<path style="stroke: none; stroke-width: 1; stroke-dasharray: none; stroke-linecap: butt; stroke-dashoffset: 0; stroke-linejoin: miter; stroke-miterlimit: 4; fill: rgb(99,104,137); fill-rule: evenodd; opacity: 1;" vector-effect="non-scaling-stroke"  transform=" translate(-236.42, -461.37)" d="M 253.218 476.656 L 219.901 476.656 C 219.901 476.656 214.876 447.46 235.869 446.131 C 256.869 444.807 253.216 476.656 253.216 476.656" stroke-linecap="round" />
</g>
<g transform="matrix(1 0 0 1 242.62 208.07)" id="Xx6ft-uwurL8ztsZttFB-" clip-path="url(#CLIPPATH_224)"  >
<clipPath id="CLIPPATH_224" >
	<rect transform="matrix(1 0 0 1 -27.96 -10.68)" id="clip0_6_40" x="-239.5" y="-345.5" rx="0" ry="0" width="479" height="691" />
</clipPath>
<path style="stroke: none; stroke-width: 1; stroke-dasharray: none; stroke-linecap: butt; stroke-dashoffset: 0; stroke-linejoin: miter; stroke-miterlimit: 4; fill: rgb(125,188,255); fill-rule: evenodd; opacity: 1;" vector-effect="non-scaling-stroke"  transform=" translate(-267.46, -356.18)" d="M 309.828 354.841 C 331.479 328.697 316.284 250.533 252.653 250.533 C 196.866 250.533 192.705 313.448 204.361 334.692 C 197.698 360.018 190.271 457.728 281.798 461.606 C 352.57 464.603 335.919 436.005 329.257 402.502 C 322.592 369.008 309.828 354.841 309.828 354.841" stroke-linecap="round" />
</g>
<g transform="matrix(1 0 0 1 301.95 257.59)" id="2mlZhq3acnfD8v_4FWQ-b" clip-path="url(#CLIPPATH_225)"  >
<clipPath id="CLIPPATH_225" >
	<rect transform="matrix(1 0 0 1 -87.29 -60.2)" id="clip0_6_40" x="-239.5" y="-345.5" rx="0" ry="0" width="479" height="691" />
</clipPath>
<path style="stroke: none; stroke-width: 1; stroke-dasharray: none; stroke-linecap: butt; stroke-dashoffset: 0; stroke-linejoin: miter; stroke-miterlimit: 4; fill: rgb(80,161,255); fill-rule: evenodd; opacity: 1;" vector-effect="non-scaling-stroke"  transform=" translate(-326.79, -405.7)" d="M 393.326 470.886 C 344.282 480.641 302.95 458.287 278.942 429.35 C 253.934 399.206 254.597 352.826 277.541 342.083 C 304.472 329.464 333.079 348.606 352.411 384.205 C 369.425 415.541 381.845 453.909 393.326 470.884" stroke-linecap="round" />
</g>
<g transform="matrix(1 0 0 1 200.32 232.74)" id="WrVBmKodq9K4UHRTD7Zg8" clip-path="url(#CLIPPATH_226)"  >
<clipPath id="CLIPPATH_226" >
	<rect transform="matrix(1 0 0 1 14.34 -35.35)" id="clip0_6_40" x="-239.5" y="-345.5" rx="0" ry="0" width="479" height="691" />
</clipPath>
<path style="stroke: none; stroke-width: 1; stroke-dasharray: none; stroke-linecap: butt; stroke-dashoffset: 0; stroke-linejoin: miter; stroke-miterlimit: 4; fill: rgb(99,104,137); fill-rule: evenodd; opacity: 1;" vector-effect="non-scaling-stroke"  transform=" translate(-225.16, -380.85)" d="M 284.031 476.656 L 250.709 476.656 C 250.709 476.656 245.691 447.46 266.684 446.131 C 287.686 444.808 284.031 476.656 284.031 476.656 Z M 205.193 333.056 C 185.21 329.784 185.116 342.676 177.715 346.126 C 162.72 345.932 154.402 280.763 202.693 285.26 C 203.113 288.525 208.527 320.801 205.193 333.056 Z" stroke-linecap="round" />
</g>
<g transform="matrix(1 0 0 1 166.36 181.16)" id="gqYoHy-E09Ih0IflfCRp6" clip-path="url(#CLIPPATH_227)"  >
<clipPath id="CLIPPATH_227" >
	<rect transform="matrix(1 0 0 1 48.3 16.23)" id="clip0_6_40" x="-239.5" y="-345.5" rx="0" ry="0" width="479" height="691" />
</clipPath>
<path style="stroke: none; stroke-width: 1; stroke-dasharray: none; stroke-linecap: butt; stroke-dashoffset: 0; stroke-linejoin: miter; stroke-miterlimit: 4; fill: rgb(255,201,0); fill-rule: nonzero; opacity: 1;" vector-effect="non-scaling-stroke"  transform=" translate(-191.2, -329.27)" d="M 175.664 344.635 C 176.151 323.538 190.508 311.493 205.17 312.265 C 206.089 312.312 206.793 313.083 206.743 313.985 C 206.695 314.886 205.909 315.577 204.99 315.528 C 192.151 314.85 179.437 325.517 178.993 344.711 C 178.973 345.612 178.211 346.327 177.291 346.307 C 176.372 346.285 175.643 345.538 175.664 344.635 L 175.664 344.635 Z" stroke-linecap="round" />
</g>
<g transform="matrix(1 0 0 1 202.56 153.08)" id="td67JmT1FUETdhLYSxPns" clip-path="url(#CLIPPATH_228)"  >
<clipPath id="CLIPPATH_228" >
	<rect transform="matrix(1 0 0 1 12.1 44.31)" id="clip0_6_40" x="-239.5" y="-345.5" rx="0" ry="0" width="479" height="691" />
</clipPath>
<path style="stroke: none; stroke-width: 1; stroke-dasharray: none; stroke-linecap: butt; stroke-dashoffset: 0; stroke-linejoin: miter; stroke-miterlimit: 4; fill: rgb(31,36,68); fill-rule: evenodd; opacity: 1;" vector-effect="non-scaling-stroke"  transform=" translate(-227.4, -301.19)" d="M 220.737 301.191 C 220.737 304.801 223.718 307.728 227.396 307.728 C 231.074 307.728 234.055 304.798 234.055 301.191 C 234.055 297.582 231.074 294.657 227.396 294.657 C 223.718 294.657 220.737 297.582 220.737 301.191 Z" stroke-linecap="round" />
</g>
</svg>