<?xml version="1.0" encoding="UTF-8" standalone="no" ?>
<!DOCTYPE svg PUBLIC "-//W3C//DTD SVG 1.1//EN" "http://www.w3.org/Graphics/SVG/1.1/DTD/svg11.dtd">
<svg xmlns="http://www.w3.org/2000/svg" xmlns:xlink="http://www.w3.org/1999/xlink" version="1.1" width="125" height="125" viewBox="0 0 125 125" xml:space="preserve">
<desc>Created with Fabric.js 4.6.0</desc>
<defs>
</defs>
<g transform="matrix(0.13 0 0 -0.13 61.24 -54.89)" id="u1aAQjzkOVRkjK6ftKuxB"  >
<path style="stroke: none; stroke-width: 1; stroke-dasharray: none; stroke-linecap: butt; stroke-dashoffset: 0; stroke-linejoin: miter; stroke-miterlimit: 4; fill: rgb(89,84,174); fill-rule: nonzero; opacity: 1;" vector-effect="non-scaling-stroke"  transform=" translate(-1802.48, -3256.65)" d="M 1672.71 3134.55 L 1899.77 3134.55 C 1919.8899999999999 3207.5 1930.15 3260.3300000000004 1932.22 3279.73 C 1932.22 3279.73 1936.8500000000001 3387.42 1826.35 3378.18 C 1826.35 3378.18 1700.23 3380.6099999999997 1679.1999999999998 3233.91 C 1679.1999999999998 3233.91 1680.2399999999998 3197.89 1672.7099999999998 3134.5499999999997" stroke-linecap="round" />
</g>
<g transform="matrix(0.13 0 0 -0.13 88.48 -85.14)" id="_8dtTNXNfz-1WJuJcrVzd"  >
<path style="stroke: none; stroke-width: 1; stroke-dasharray: none; stroke-linecap: butt; stroke-dashoffset: 0; stroke-linejoin: miter; stroke-miterlimit: 4; fill: rgb(247,172,128); fill-rule: nonzero; opacity: 1;" vector-effect="non-scaling-stroke"  transform=" translate(-2006.75, -3483.53)" d="M 2068.39 3401.02 L 1945.11 3401.02 L 1945.11 3566.04 L 2068.39 3566.04 L 2068.39 3401.02" stroke-linecap="round" />
</g>
<g transform="matrix(0.13 0 0 -0.13 88.48 -72.31)" id="48d-Xbu79RTvVQ2s3P0V-"  >
<path style="stroke: none; stroke-width: 1; stroke-dasharray: none; stroke-linecap: butt; stroke-dashoffset: 0; stroke-linejoin: miter; stroke-miterlimit: 4; fill: rgb(247,172,128); fill-rule: nonzero; opacity: 1;" vector-effect="non-scaling-stroke"  transform=" translate(-2006.75, -3387.31)" d="M 2285.73 3329.65 C 2251.44 3382.7200000000003 2197.56 3397.09 2197.56 3397.09 L 2068.39 3444.96 L 1945.11 3444.96 L 1816 3397.09 C 1816 3397.09 1762.09 3382.7200000000003 1727.77 3329.65 L 2285.73 3329.65" stroke-linecap="round" />
</g>
<g transform="matrix(0.13 0 0 -0.13 88.48 -58.55)" id="wddau7o8CfLzprVuNSYwj"  >
<path style="stroke: none; stroke-width: 1; stroke-dasharray: none; stroke-linecap: butt; stroke-dashoffset: 0; stroke-linejoin: miter; stroke-miterlimit: 4; fill: rgb(89,84,174); fill-rule: nonzero; opacity: 1;" vector-effect="non-scaling-stroke"  transform=" translate(-2006.76, -3284.07)" d="M 2254.49 3134.55 L 2254.1 3147.8700000000003 L 2311.0499999999997 3261.09 C 2294.4199999999996 3371.33 2197.56 3397.09 2197.56 3397.09 L 2099.0299999999997 3433.59 L 1986.6099999999997 3395.4500000000003 L 1911.5499999999997 3432.5200000000004 L 1815.9999999999998 3397.0900000000006 C 1815.9999999999998 3397.0900000000006 1719.0999999999997 3371.3300000000004 1702.4799999999998 3261.0900000000006 L 1748.5899999999997 3134.5500000000006 L 2254.49 3134.5500000000006" stroke-linecap="round" />
</g>
<g transform="matrix(0.13 0 0 -0.13 117.81 -54.91)" id="yeB-pSShl8LIcuS3QSZ-h"  >
<path style="stroke: none; stroke-width: 1; stroke-dasharray: none; stroke-linecap: butt; stroke-dashoffset: 0; stroke-linejoin: miter; stroke-miterlimit: 4; fill: rgb(89,84,174); fill-rule: nonzero; opacity: 1;" vector-effect="non-scaling-stroke"  transform=" translate(-2226.74, -3256.79)" d="M 2120.21 3134.55 L 2365.6 3134.55 C 2333.54 3238.67 2302.83 3310.7200000000003 2290.75 3332.42 C 2290.75 3332.42 2232.29 3423.01 2147.42 3351.62 C 2147.42 3351.62 2043.0700000000002 3280.7999999999997 2110.64 3148.87 C 2110.64 3148.87 2114.1299999999997 3144.02 2120.21 3134.5499999999997" stroke-linecap="round" />
</g>
<g transform="matrix(0.13 0 0 -0.13 66.41 -127.41)" id="_72R5zoquXJ-q6sIBrjfx"  >
<path style="stroke: none; stroke-width: 1; stroke-dasharray: none; stroke-linecap: butt; stroke-dashoffset: 0; stroke-linejoin: miter; stroke-miterlimit: 4; fill: rgb(122,79,33); fill-rule: nonzero; opacity: 1;" vector-effect="non-scaling-stroke"  transform=" translate(-1841.27, -3800.55)" d="M 1799.28 3800.55 C 1796.43 3823.01 1794.02 3830.76 1793.44 3884 C 1793.17 3909.12 1798.1000000000001 3946.99 1829.31 3950.2 C 1872.55 3954.6299999999997 1885.8899999999999 3879.8999999999996 1888.44 3847.56 C 1891.96 3802.93 1880.89 3754.77 1872.29 3711.09 C 1869.19 3695.31 1869.53 3663.81 1851.79 3656.21 C 1836.58 3649.67 1839.1599999999999 3647.27 1831.43 3658.67 C 1812.73 3686.17 1803.27 3768.75 1799.28 3800.55" stroke-linecap="round" />
</g>
<g transform="matrix(0.13 0 0 -0.13 87.23 -120.55)" id="-5dFuTOaBhJhaiFK2c0UD"  >
<path style="stroke: none; stroke-width: 1; stroke-dasharray: none; stroke-linecap: butt; stroke-dashoffset: 0; stroke-linejoin: miter; stroke-miterlimit: 4; fill: rgb(247,172,128); fill-rule: nonzero; opacity: 1;" vector-effect="non-scaling-stroke"  transform=" translate(-1997.4, -3749.08)" d="M 1822.64 3589 C 1839.76 3522.07 1869.89 3503.63 1869.89 3503.63 L 1910.2900000000002 3495.7200000000003 C 1933.5500000000002 3498.71 1973.64 3508.1600000000003 1973.64 3508.1600000000003 C 2065.94 3539.53 2096.57 3537.6400000000003 2115.62 3585.63 C 2116.22 3587.09 2179.77 3835.04 2179.77 3835.04 C 2191.57 3963.98 2056.65 3990.7799999999997 2036.26 3994.14 C 2016.11 3998.77 1887.61 4034.49 1849.67 3910.7599999999998 C 1849.67 3910.7599999999998 1793.6000000000001 3767.3599999999997 1822.64 3589" stroke-linecap="round" />
</g>
<g transform="matrix(0.13 0 0 -0.13 83.06 -95.52)" id="um6sYgKiYSFaSo6pySUIf"  >
<path style="stroke: none; stroke-width: 1; stroke-dasharray: none; stroke-linecap: butt; stroke-dashoffset: 0; stroke-linejoin: miter; stroke-miterlimit: 4; fill: rgb(232,161,120); fill-rule: nonzero; opacity: 1;" vector-effect="non-scaling-stroke"  transform=" translate(-1966.16, -3561.35)" d="M 2086.15 3563.95 C 2049.02 3535.25 1986.2 3516.45 1939.94 3511.56 C 1857.8600000000001 3502.89 1839.3600000000001 3563.36 1825.24 3627.38 C 1826.5 3612.6800000000003 1828.14 3597.7000000000003 1830.63 3582.32 C 1846.5800000000002 3519.88 1874.71 3502.6600000000003 1874.71 3502.6600000000003 L 1912.3700000000001 3495.3100000000004 C 1934.0800000000002 3498.0900000000006 1971.5000000000002 3506.8900000000003 1971.5000000000002 3506.8900000000003 C 2057.59 3536.1700000000005 2086.17 3534.4100000000003 2103.94 3579.1600000000003 C 2104.01 3579.36 2105.18 3583.7700000000004 2107.07 3591.11 C 2101.4100000000003 3580.7000000000003 2094.9700000000003 3570.78 2086.15 3563.9500000000003" stroke-linecap="round" />
</g>
<g transform="matrix(0.13 0 0 -0.13 88.48 -129.91)" id="MGP7Efn5WQkMhWxVq1O_y"  >
<path style="stroke: none; stroke-width: 1; stroke-dasharray: none; stroke-linecap: butt; stroke-dashoffset: 0; stroke-linejoin: miter; stroke-miterlimit: 4; fill: rgb(122,79,33); fill-rule: nonzero; opacity: 1;" vector-effect="non-scaling-stroke"  transform=" translate(-2006.77, -3819.28)" d="M 2006.29 4036.64 C 2044.68 4041.7599999999998 2089.2599999999998 4051.48 2127.14 4039.12 C 2177.6 4022.6 2177.42 3965.1 2200.24 3925.8399999999997 C 2224.5299999999997 3884.0399999999995 2239.85 3848.6899999999996 2237.74 3803.16 C 2236.12 3767.91 2222.37 3785.2 2217.2799999999997 3749.1 C 2211.62 3708.95 2203.9399999999996 3705.8399999999997 2184.87 3672.25 L 2115.62 3585.63 C 2126.71 3629.57 2118.3199999999997 3637.6800000000003 2128.44 3671.4300000000003 C 2140.6 3711.9300000000003 2137.04 3766.15 2118.98 3807.7500000000005 C 2103.02 3844.5500000000006 2091.92 3843.7700000000004 2057.91 3852.6800000000003 C 2014.1999999999998 3864.1200000000003 1976.4799999999998 3868.38 1931.08 3869.1200000000003 C 1889.59 3869.7700000000004 1844.4399999999998 3870.9800000000005 1810.77 3898.6900000000005 C 1779.77 3924.2400000000007 1768.3 3980.7600000000007 1780.23 4019.6700000000005 C 1780.23 4019.6700000000005 1799.28 4062.5600000000004 1852.7 4050.9200000000005 C 1885.43 4043.7500000000005 1918.71 4034.1600000000003 1952.3700000000001 4033.0700000000006 C 1971.0000000000002 4032.4800000000005 1988.8200000000002 4034.3200000000006 2006.2900000000002 4036.640000000001" stroke-linecap="round" />
</g>
<g transform="matrix(0.13 0 0 -0.13 107.28 -111.76)" id="imvjQPYdJRfHhHl7ALOLT"  >
<path style="stroke: none; stroke-width: 1; stroke-dasharray: none; stroke-linecap: butt; stroke-dashoffset: 0; stroke-linejoin: miter; stroke-miterlimit: 4; fill: rgb(247,172,128); fill-rule: nonzero; opacity: 1;" vector-effect="non-scaling-stroke"  transform=" translate(-2147.75, -3683.21)" d="M 2119.94 3695.94 C 2119.94 3695.94 2142.7400000000002 3745.66 2178.63 3716.21 C 2178.63 3716.21 2194.94 3703.46 2174.82 3670.21 C 2174.82 3670.21 2145.6400000000003 3622.38 2110.6400000000003 3648.87 L 2119.9400000000005 3695.94" stroke-linecap="round" />
</g>
<g transform="matrix(0.13 0 0 -0.13 105.7 -119.61)" id="yTZ4wDtKzFkTYusO-FWVs"  >
<path style="stroke: none; stroke-width: 1; stroke-dasharray: none; stroke-linecap: butt; stroke-dashoffset: 0; stroke-linejoin: miter; stroke-miterlimit: 4; fill: rgb(122,79,33); fill-rule: nonzero; opacity: 1;" vector-effect="non-scaling-stroke"  transform=" translate(-2135.93, -3742.06)" d="M 2123.53 3811.86 C 2123.53 3811.86 2123.3500000000004 3722.8700000000003 2106.9900000000002 3675.7000000000003 L 2124.3700000000003 3672.2500000000005 C 2124.3700000000003 3672.2500000000005 2133.4700000000003 3733.2600000000007 2164.8700000000003 3734.0000000000005 L 2123.53 3811.8600000000006" stroke-linecap="round" />
</g>
<g transform="matrix(0.13 0 0 -0.13 46.19 72.83)" id="p6sksTFDihiMxSt4X29__"  >
<path style="stroke: none; stroke-width: 1; stroke-dasharray: none; stroke-linecap: butt; stroke-dashoffset: 0; stroke-linejoin: miter; stroke-miterlimit: 4; fill: rgb(89,34,22); fill-rule: nonzero; opacity: 1;" vector-effect="non-scaling-stroke"  transform=" translate(-4236.86, -3541.75)" d="M 4078.98 3234.98 C 4078.53 3194.04 4081.53 3166.64 4099.52 3139 L 4375.610000000001 3139 C 4373.320000000001 3185.27 4349.9800000000005 3204.18 4378.920000000001 3247.64 C 4405.910000000001 3288.2 4440.860000000001 3320.43 4412.480000000001 3371.43 C 4379.470000000001 3430.8399999999997 4341.970000000001 3452.77 4348.120000000002 3527.58 C 4352.300000000002 3578.09 4388.120000000002 3607.93 4392.550000000002 3661.02 C 4396.940000000002 3713.71 4412.200000000002 3806.58 4372.080000000002 3849.2799999999997 C 4359.190000000001 3863.0099999999998 4338.950000000002 3861.29 4325.700000000002 3872.5199999999995 C 4307.380000000002 3888.1099999999997 4308.730000000001 3908.4999999999995 4293.890000000001 3925.2099999999996 C 4264.870000000001 3957.9299999999994 4226.770000000001 3943.5899999999997 4194.130000000001 3922.2499999999995 C 4132.220000000001 3881.8399999999997 4079.680000000001 3784.7699999999995 4103.730000000001 3709.9399999999996 C 4120.1500000000015 3658.9299999999994 4148.6500000000015 3640.2699999999995 4113.760000000001 3591.97 C 4083.360000000001 3549.9199999999996 4055.6400000000012 3519.06 4051.200000000001 3464.43 C 4046.590000000001 3407.77 4074.400000000001 3390.5299999999997 4087.1400000000012 3342.64 C 4095.9600000000014 3309.41 4079.4000000000015 3268.77 4078.9800000000014 3234.98" stroke-linecap="round" />
</g>
<g transform="matrix(0.13 0 0 -0.13 72.84 72.83)" id="URHmVT8qlsuBl_JnDNaV0"  >
<path style="stroke: none; stroke-width: 1; stroke-dasharray: none; stroke-linecap: butt; stroke-dashoffset: 0; stroke-linejoin: miter; stroke-miterlimit: 4; fill: rgb(89,34,22); fill-rule: nonzero; opacity: 1;" vector-effect="non-scaling-stroke"  transform=" translate(-4436.7, -3541.75)" d="M 4278.82 3234.98 C 4278.349999999999 3194.04 4281.38 3166.64 4299.37 3139 L 4575.44 3139 C 4573.169999999999 3185.27 4549.82 3204.18 4578.75 3247.64 C 4605.75 3288.2 4640.68 3320.43 4612.32 3371.43 C 4579.299999999999 3430.8399999999997 4541.799999999999 3452.77 4547.95 3527.58 C 4552.11 3578.09 4587.95 3607.93 4592.389999999999 3661.02 C 4596.78 3713.71 4612.039999999999 3806.58 4571.919999999999 3849.2799999999997 C 4559.009999999999 3863.0099999999998 4538.779999999999 3861.29 4525.539999999999 3872.5199999999995 C 4507.219999999999 3888.1099999999997 4508.5599999999995 3908.4999999999995 4493.719999999999 3925.2099999999996 C 4464.719999999999 3957.9299999999994 4426.589999999999 3943.5899999999997 4393.959999999999 3922.2499999999995 C 4332.039999999999 3881.8399999999997 4279.489999999999 3784.7699999999995 4303.5599999999995 3709.9399999999996 C 4319.969999999999 3658.9299999999994 4348.499999999999 3640.2699999999995 4313.58 3591.97 C 4283.19 3549.9199999999996 4255.49 3519.06 4251.04 3464.43 C 4246.44 3407.77 4274.23 3390.5299999999997 4286.96 3342.64 C 4295.8 3309.41 4279.2300000000005 3268.77 4278.82 3234.98" stroke-linecap="round" />
</g>
<g transform="matrix(0.13 0 0 -0.13 61.82 100.61)" id="vKqviBCy1GubjjhPCYWph"  >
<path style="stroke: none; stroke-width: 1; stroke-dasharray: none; stroke-linecap: butt; stroke-dashoffset: 0; stroke-linejoin: miter; stroke-miterlimit: 4; fill: rgb(188,113,76); fill-rule: nonzero; opacity: 1;" vector-effect="non-scaling-stroke"  transform=" translate(-4354.08, -3333.36)" d="M 4619.35 3278.54 C 4586.7300000000005 3329 4535.46 3342.68 4535.46 3342.68 L 4412.66 3388.18 L 4295.44 3388.18 L 4172.66 3342.68 C 4172.66 3342.68 4121.43 3329 4088.81 3278.54 L 4619.35 3278.54" stroke-linecap="round" />
</g>
<g transform="matrix(0.13 0 0 -0.13 90.12 113.88)" id="l3htDe-TUFKhRLQQkITvb"  >
<path style="stroke: none; stroke-width: 1; stroke-dasharray: none; stroke-linecap: butt; stroke-dashoffset: 0; stroke-linejoin: miter; stroke-miterlimit: 4; fill: rgb(188,113,76); fill-rule: nonzero; opacity: 1;" vector-effect="non-scaling-stroke"  transform=" translate(-4566.3, -3233.84)" d="M 4646.77 3139 C 4647.13 3146.41 4653.52 3303.77 4566.71 3328.61 C 4566.71 3328.61 4455.96 3337.9300000000003 4493.27 3139 L 4646.77 3139" stroke-linecap="round" />
</g>
<g transform="matrix(0.13 0 0 -0.13 89.29 113.57)" id="bzlvFWYDV9falUZC4cPPw"  >
<path style="stroke: none; stroke-width: 1; stroke-dasharray: none; stroke-linecap: butt; stroke-dashoffset: 0; stroke-linejoin: miter; stroke-miterlimit: 4; fill: rgb(89,84,174); fill-rule: nonzero; opacity: 1;" vector-effect="non-scaling-stroke"  transform=" translate(-4560.04, -3236.19)" d="M 4471.21 3139 L 4660.87 3139 L 4644.48 3237.17 C 4629.5199999999995 3341 4542.11 3333.2400000000002 4542.11 3333.2400000000002 C 4445.58 3304.7500000000005 4459.969999999999 3211.3100000000004 4459.969999999999 3211.3100000000004 L 4471.209999999999 3139.0000000000005" stroke-linecap="round" />
</g>
<g transform="matrix(0.13 0 0 -0.13 79.35 32.32)" id="RBUbQ6zUoYo-G5OvE3bEi"  >
<path style="stroke: none; stroke-width: 1; stroke-dasharray: none; stroke-linecap: butt; stroke-dashoffset: 0; stroke-linejoin: miter; stroke-miterlimit: 4; fill: rgb(89,34,22); fill-rule: nonzero; opacity: 1;" vector-effect="non-scaling-stroke"  transform=" translate(-4485.53, -3845.54)" d="M 4579.63 3891.89 C 4593.4800000000005 3862.0499999999997 4601.36 3819.6299999999997 4588.04 3789.08 C 4558.56 3721.45 4426.15 3703.65 4389.68 3771.0699999999997 C 4362.4400000000005 3821.39 4378.84 3893.7899999999995 4416.820000000001 3934.2599999999998 C 4469.610000000001 3990.49 4549.9400000000005 3955.7799999999997 4579.630000000001 3891.89" stroke-linecap="round" />
</g>
<g transform="matrix(0.13 0 0 -0.13 61.82 88.41)" id="JeEvbWJOrv1dW4gQeDKH2"  >
<path style="stroke: none; stroke-width: 1; stroke-dasharray: none; stroke-linecap: butt; stroke-dashoffset: 0; stroke-linejoin: miter; stroke-miterlimit: 4; fill: rgb(188,113,76); fill-rule: nonzero; opacity: 1;" vector-effect="non-scaling-stroke"  transform=" translate(-4354.05, -3424.84)" d="M 4412.66 3346.37 L 4295.44 3346.37 L 4295.44 3503.3199999999997 L 4412.66 3503.3199999999997 L 4412.66 3346.37" stroke-linecap="round" />
</g>
<g transform="matrix(0.13 0 0 -0.13 59.28 110.7)" id="rqE7tOPc1OOJfhKfMA1cy"  >
<path style="stroke: none; stroke-width: 1; stroke-dasharray: none; stroke-linecap: butt; stroke-dashoffset: 0; stroke-linejoin: miter; stroke-miterlimit: 4; fill: rgb(89,84,174); fill-rule: nonzero; opacity: 1;" vector-effect="non-scaling-stroke"  transform=" translate(-4335.04, -3257.67)" d="M 4589.09 3139 C 4587.83 3146.89 4586.51 3151.62 4586.51 3151.62 C 4586.51 3151.62 4551.650000000001 3286.0699999999997 4563.83 3330.29 C 4563.83 3330.29 4534.13 3348.83 4450.96 3374 C 4441.58 3334.43 4398.9800000000005 3316.58 4398.9800000000005 3316.58 C 4317.570000000001 3325.14 4263.530000000001 3376.35 4263.530000000001 3376.35 L 4157.240000000001 3336.8199999999997 C 4157.240000000001 3336.8199999999997 4022.390000000001 3308.7899999999995 4111.340000000001 3138.9999999999995 L 4589.090000000001 3138.9999999999995" stroke-linecap="round" />
</g>
<g transform="matrix(0.13 0 0 -0.13 66.74 51.87)" id="5MT8eAAJ4ogkkUCvaSz8x"  >
<path style="stroke: none; stroke-width: 1; stroke-dasharray: none; stroke-linecap: butt; stroke-dashoffset: 0; stroke-linejoin: miter; stroke-miterlimit: 4; fill: rgb(188,113,76); fill-rule: nonzero; opacity: 1;" vector-effect="non-scaling-stroke"  transform=" translate(-4390.93, -3698.96)" d="M 4269.93 3542.21 C 4274.900000000001 3530.7 4281.8 3520.06 4291.4800000000005 3510.7400000000002 C 4334.52 3469.34 4391.990000000001 3440.3700000000003 4452.35 3440.3700000000003 C 4609.870000000001 3509.1600000000003 4558.79 3812.4600000000005 4558.79 3812.4600000000005 C 4535.16 3957.6000000000004 4410.98 3957.2900000000004 4410.98 3957.2900000000004 C 4317.179999999999 3961.3500000000004 4231.62 3917.0700000000006 4217.209999999999 3818.2400000000002 C 4211.669999999999 3780.3900000000003 4218.98 3739.7500000000005 4220.859999999999 3701.8900000000003 C 4222.249999999999 3674.0800000000004 4225.6799999999985 3646.3700000000003 4234.579999999999 3619.82 C 4243.629999999999 3592.75 4258.599999999999 3568.32 4269.929999999999 3542.21" stroke-linecap="round" />
</g>
<g transform="matrix(0.13 0 0 -0.13 67.81 78.62)" id="V4H5rBg4g0qD2NdeMhHss"  >
<path style="stroke: none; stroke-width: 1; stroke-dasharray: none; stroke-linecap: butt; stroke-dashoffset: 0; stroke-linejoin: miter; stroke-miterlimit: 4; fill: rgb(167,100,67); fill-rule: nonzero; opacity: 1;" vector-effect="non-scaling-stroke"  transform=" translate(-4398.99, -3498.32)" d="M 4534.59 3525.86 C 4517.2300000000005 3488.54 4491.13 3457.32 4452.35 3440.3700000000003 C 4391.990000000001 3440.3700000000003 4334.52 3469.34 4291.4800000000005 3510.7400000000002 C 4281.8 3520.0600000000004 4274.900000000001 3530.7000000000003 4269.93 3542.21 C 4267.85 3546.9700000000003 4265.610000000001 3551.62 4263.38 3556.27 C 4338.56 3470.7599999999998 4448.14 3388.18 4534.59 3525.86" stroke-linecap="round" />
</g>
<g transform="matrix(0.13 0 0 -0.13 44.28 59.03)" id="4LUcxsKm7KfTYgRUO0NvA"  >
<path style="stroke: none; stroke-width: 1; stroke-dasharray: none; stroke-linecap: butt; stroke-dashoffset: 0; stroke-linejoin: miter; stroke-miterlimit: 4; fill: rgb(188,113,76); fill-rule: nonzero; opacity: 1;" vector-effect="non-scaling-stroke"  transform=" translate(-4222.53, -3645.24)" d="M 4253.42 3652.85 C 4253.42 3652.85 4241.03 3704.49 4201.31 3683.18 C 4201.31 3683.18 4183.38 3674.08 4196.31 3638.6299999999997 C 4196.31 3638.6299999999997 4215.14 3587.5999999999995 4253.4400000000005 3606.2499999999995 L 4253.42 3652.8499999999995" stroke-linecap="round" />
</g>
<g transform="matrix(0.13 0 0 -0.13 60.13 37.74)" id="8W_MFFLStTLu2Gb-gEHpA"  >
<path style="stroke: none; stroke-width: 1; stroke-dasharray: none; stroke-linecap: butt; stroke-dashoffset: 0; stroke-linejoin: miter; stroke-miterlimit: 4; fill: rgb(89,34,22); fill-rule: nonzero; opacity: 1;" vector-effect="non-scaling-stroke"  transform=" translate(-4341.4, -3804.91)" d="M 4513.43 3910.98 C 4513.43 3910.98 4532.400000000001 3733.57 4349.1 3725.68 C 4349.1 3725.68 4250.2300000000005 3719.77 4263.38 3624.75 C 4263.38 3624.75 4260.53 3698.07 4201.31 3683.18 C 4201.31 3683.18 4160.81 3732.91 4170.240000000001 3829.8599999999997 C 4170.240000000001 3829.8599999999997 4164.85 3939.3799999999997 4320.210000000001 3980.9399999999996 C 4320.210000000001 3980.9399999999996 4500.280000000001 4010.6299999999997 4513.430000000001 3910.9799999999996" stroke-linecap="round" />
</g>
<g transform="matrix(0.13 0 0 -0.13 32.61 114.98)" id="PB6pq5hOZJ_-C8xyXOVB3"  >
<path style="stroke: none; stroke-width: 1; stroke-dasharray: none; stroke-linecap: butt; stroke-dashoffset: 0; stroke-linejoin: miter; stroke-miterlimit: 4; fill: rgb(188,113,76); fill-rule: nonzero; opacity: 1;" vector-effect="non-scaling-stroke"  transform=" translate(-4134.95, -3225.61)" d="M 4208.98 3139 C 4219.929999999999 3179.98 4236.4 3274.2 4168.2 3307.83 C 4168.2 3307.83 4042.68 3355.18 4051.31 3139 L 4208.98 3139" stroke-linecap="round" />
</g>
<g transform="matrix(0.13 0 0 -0.13 33.56 114.39)" id="3WbENzLicCEmE5zQFPviU"  >
<path style="stroke: none; stroke-width: 1; stroke-dasharray: none; stroke-linecap: butt; stroke-dashoffset: 0; stroke-linejoin: miter; stroke-miterlimit: 4; fill: rgb(89,84,174); fill-rule: nonzero; opacity: 1;" vector-effect="non-scaling-stroke"  transform=" translate(-4142.13, -3230.01)" d="M 4231.87 3139 L 4241.11 3199.1 C 4241.11 3199.1 4255.36 3292.56 4158.759999999999 3320.9 C 4158.759999999999 3320.9 4071.3699999999994 3328.54 4056.5699999999993 3224.69 L 4042.41 3139 L 4231.87 3139" stroke-linecap="round" />
</g>
<g transform="matrix(0.13 0 0 -0.13 -65.74 -54.31)" id="RlRVLRffSKldkJgBZZL9m"  >
<path style="stroke: none; stroke-width: 1; stroke-dasharray: none; stroke-linecap: butt; stroke-dashoffset: 0; stroke-linejoin: miter; stroke-miterlimit: 4; fill: rgb(51,85,174); fill-rule: nonzero; opacity: 1;" vector-effect="non-scaling-stroke"  transform=" translate(-592.71, -656.56)" d="M 465.559 562.809 L 702.148 562.809 C 712.6370000000001 606.1909999999999 718.34 637.3589999999999 719.836 651.289 C 719.836 651.289 724.441 758.98 613.953 749.75 C 613.953 749.75 487.844 752.148 466.78499999999997 605.4300000000001 C 466.78499999999997 605.4300000000001 467.246 590.4300000000001 465.55899999999997 562.8090000000001" stroke-linecap="round" />
</g>
<g transform="matrix(0.13 0 0 -0.13 -38.86 -80.78)" id="ezBLcRa_0suNhjRXw5luH"  >
<path style="stroke: none; stroke-width: 1; stroke-dasharray: none; stroke-linecap: butt; stroke-dashoffset: 0; stroke-linejoin: miter; stroke-miterlimit: 4; fill: rgb(188,113,76); fill-rule: nonzero; opacity: 1;" vector-effect="non-scaling-stroke"  transform=" translate(-794.35, -855.07)" d="M 855.977 772.559 L 732.715 772.559 L 732.715 937.582 L 855.977 937.582 L 855.977 772.559" stroke-linecap="round" />
</g>
<g transform="matrix(0.13 0 0 -0.13 -38.85 -67.95)" id="UuUA2_C_7Mlbf3n5CuCkb"  >
<path style="stroke: none; stroke-width: 1; stroke-dasharray: none; stroke-linecap: butt; stroke-dashoffset: 0; stroke-linejoin: miter; stroke-miterlimit: 4; fill: rgb(188,113,76); fill-rule: nonzero; opacity: 1;" vector-effect="non-scaling-stroke"  transform=" translate(-794.37, -758.85)" d="M 1073.34 701.211 C 1039.05 754.2620000000001 985.145 768.648 985.145 768.648 L 855.977 816.48 L 732.715 816.48 L 603.586 768.648 C 603.586 768.648 549.695 754.2620000000001 515.398 701.211 L 1073.3400000000001 701.211" stroke-linecap="round" />
</g>
<g transform="matrix(0.13 0 0 -0.13 -38.85 -57.97)" id="JY5j2f7pINYCctKZkJOVn"  >
<path style="stroke: none; stroke-width: 1; stroke-dasharray: none; stroke-linecap: butt; stroke-dashoffset: 0; stroke-linejoin: miter; stroke-miterlimit: 4; fill: rgb(89,84,174); fill-rule: nonzero; opacity: 1;" vector-effect="non-scaling-stroke"  transform=" translate(-794.36, -683.98)" d="M 1063.54 562.809 L 1098.6499999999999 632.66 C 1082.04 742.891 985.145 768.648 985.145 768.648 L 886.621 805.1600000000001 L 774.211 766.9920000000001 L 699.172 804.0820000000001 L 603.586 768.6480000000001 C 603.586 768.6480000000001 506.711 742.8910000000002 490.07800000000003 632.6600000000001 L 515.527 562.8090000000001 L 1063.54 562.8090000000001" stroke-linecap="round" />
</g>
<g transform="matrix(0.13 0 0 -0.13 -10.74 -54.33)" id="r_JDTwQY5b3sDQC3LLJoX"  >
<path style="stroke: none; stroke-width: 1; stroke-dasharray: none; stroke-linecap: butt; stroke-dashoffset: 0; stroke-linejoin: miter; stroke-miterlimit: 4; fill: rgb(51,85,174); fill-rule: nonzero; opacity: 1;" vector-effect="non-scaling-stroke"  transform=" translate(-1005.24, -656.7)" d="M 1134.89 562.809 C 1109.98 636.191 1088.1000000000001 686.4689999999999 1078.3500000000001 704 C 1078.3500000000001 704 1019.8900000000001 794.551 935.0390000000001 723.18 C 935.0390000000001 723.18 853.0740000000001 667.4409999999999 881.6210000000001 562.809 L 1134.89 562.809" stroke-linecap="round" />
</g>
<g transform="matrix(0.13 0 0 -0.13 -58.14 -123.05)" id="uINZrqqMmskbYaKMPZv69"  >
<path style="stroke: none; stroke-width: 1; stroke-dasharray: none; stroke-linecap: butt; stroke-dashoffset: 0; stroke-linejoin: miter; stroke-miterlimit: 4; fill: rgb(89,34,22); fill-rule: nonzero; opacity: 1;" vector-effect="non-scaling-stroke"  transform=" translate(-649.74, -1172.1)" d="M 607.742 1172.09 C 604.91 1194.55 602.512 1202.32 601.9259999999999 1255.55 C 601.621 1280.6599999999999 606.5699999999999 1318.55 637.7539999999999 1321.76 C 681.0079999999999 1326.17 694.3629999999999 1251.48 696.9019999999999 1219.1 C 700.4219999999999 1174.49 689.3549999999999 1126.31 680.7539999999999 1082.62 C 677.6679999999999 1066.86 677.9799999999999 1035.35 660.242 1027.7299999999998 C 645.0509999999999 1021.2299999999998 647.637 1018.7899999999997 639.8829999999999 1030.2199999999998 C 621.1909999999999 1057.7299999999998 611.7379999999999 1140.2899999999997 607.742 1172.0899999999997" stroke-linecap="round" />
</g>
<g transform="matrix(0.13 0 0 -0.13 -40.1 -116.19)" id="gcQT9LPp5N-jPmRJrMSKD"  >
<path style="stroke: none; stroke-width: 1; stroke-dasharray: none; stroke-linecap: butt; stroke-dashoffset: 0; stroke-linejoin: miter; stroke-miterlimit: 4; fill: rgb(188,113,76); fill-rule: nonzero; opacity: 1;" vector-effect="non-scaling-stroke"  transform=" translate(-785, -1120.65)" d="M 610.254 960.551 C 627.355 893.648 657.5 875.199 657.5 875.199 L 697.891 867.3009999999999 C 721.1519999999999 870.27 761.262 879.7109999999999 761.262 879.7109999999999 C 853.535 911.0899999999999 884.18 909.1989999999998 903.223 957.1909999999999 C 903.8399999999999 958.6719999999999 967.355 1206.6 967.355 1206.6 C 979.16 1335.53 844.258 1362.34 823.855 1365.6999999999998 C 803.7230000000001 1370.33 675.234 1406.0699999999997 637.2850000000001 1282.3199999999997 C 637.2850000000001 1282.3199999999997 581.2230000000001 1138.9099999999996 610.2540000000001 960.5509999999997" stroke-linecap="round" />
</g>
<g transform="matrix(0.13 0 0 -0.13 -44.27 -91.16)" id="NKtMglPOpm-4_IfbdECRu"  >
<path style="stroke: none; stroke-width: 1; stroke-dasharray: none; stroke-linecap: butt; stroke-dashoffset: 0; stroke-linejoin: miter; stroke-miterlimit: 4; fill: rgb(167,100,67); fill-rule: nonzero; opacity: 1;" vector-effect="non-scaling-stroke"  transform=" translate(-753.77, -932.9)" d="M 873.75 935.512 C 836.641 906.8199999999999 773.816 887.992 727.559 883.1089999999999 C 645.4689999999999 874.43 626.9649999999999 934.9219999999999 612.8589999999999 998.949 C 614.0939999999999 984.199 615.7299999999999 969.242 618.242 953.871 C 634.188 891.449 662.2969999999999 874.2189999999999 662.2969999999999 874.2189999999999 L 699.9799999999999 866.8589999999999 C 721.6879999999999 869.6479999999999 759.1019999999999 878.4609999999999 759.1019999999999 878.4609999999999 C 845.1879999999999 907.7499999999999 873.7499999999999 905.9609999999999 891.5309999999998 950.7189999999999 C 891.6209999999999 950.8979999999999 892.7659999999998 955.332 894.6879999999999 962.699 C 889.0229999999999 952.27 882.5899999999999 942.3009999999999 873.7499999999999 935.512" stroke-linecap="round" />
</g>
<g transform="matrix(0.13 0 0 -0.13 -38.53 -125.43)" id="hgYXdFwZlfVgqlH8WZw-U"  >
<path style="stroke: none; stroke-width: 1; stroke-dasharray: none; stroke-linecap: butt; stroke-dashoffset: 0; stroke-linejoin: miter; stroke-miterlimit: 4; fill: rgb(89,34,22); fill-rule: nonzero; opacity: 1;" vector-effect="non-scaling-stroke"  transform=" translate(-796.77, -1189.97)" d="M 573.035 1355.45 C 578.879 1364.71 588.391 1363.1100000000001 593.105 1375.04 C 597.063 1385.06 589.188 1399.59 596.133 1408.24 C 606.6410000000001 1421.29 643.2620000000001 1417.64 656.3670000000001 1413.36 C 679.5780000000001 1405.84 684.172 1392.9499999999998 709.133 1404.12 C 730.383 1413.6499999999999 734.836 1426.1499999999999 761.9730000000001 1421.35 C 781.863 1417.81 795.2660000000001 1405.02 817.9490000000001 1408.77 C 838.008 1412.07 850.8520000000001 1426.3899999999999 873.379 1424.59 C 884.27 1423.7099999999998 896.4060000000001 1422.05 904.52 1413.3 C 913.848 1403.24 907.898 1398.3 912.9689999999999 1387.6399999999999 C 919.4259999999999 1374.06 913.5229999999999 1377.6999999999998 926.1329999999999 1369.1999999999998 C 933.4689999999999 1364.2399999999998 945.0269999999999 1367.6999999999998 951.8549999999999 1360.7399999999998 C 969.9609999999999 1342.2999999999997 949.4799999999999 1315.8199999999997 960.2539999999999 1297.8299999999997 C 971.6479999999999 1278.7699999999998 1003.9599999999999 1290.9599999999998 1010.6399999999999 1263.6499999999996 C 1013.4199999999998 1252.2099999999996 1003.2799999999999 1242.7899999999997 1005.2899999999998 1231.9699999999996 C 1008.0199999999999 1217.5399999999995 1013.1999999999998 1221.4799999999996 1020.4199999999998 1210.2199999999996 C 1031.1 1193.4399999999996 1035.2699999999998 1180.6399999999996 1021.3399999999998 1160.5899999999995 C 1005.7499999999998 1138.2199999999996 999.9999999999998 1136.3899999999994 1000.0399999999998 1105.3499999999995 C 1000.0599999999998 1071.6599999999994 995.8519999999999 1075.4299999999994 975.6909999999998 1053.2799999999995 C 959.0309999999998 1034.9999999999995 963.5079999999998 1013.4199999999995 944.6799999999998 997.0699999999995 C 937.7659999999998 991.0509999999995 928.4769999999999 989.9999999999994 920.8129999999999 981.3909999999995 C 913.9839999999999 973.7699999999995 912.4799999999999 962.1909999999995 902.8979999999999 955.1989999999995 C 898.9839999999999 994.4099999999995 921.5939999999999 1031.6399999999994 923.5079999999999 1071.0399999999995 C 925.156 1105.0199999999995 923.0079999999999 1170.1999999999996 903.184 1198.3199999999995 C 879.141 1232.4599999999996 820.0899999999999 1221.4499999999996 783.5229999999999 1221.4299999999994 C 737.2579999999999 1221.3899999999994 514.6019999999999 1262.9099999999994 573.0349999999999 1355.4499999999994" stroke-linecap="round" />
</g>
<g transform="matrix(0.13 0 0 -0.13 -20.06 -107.4)" id="YoaQalVWqltxgFcmVVssn"  >
<path style="stroke: none; stroke-width: 1; stroke-dasharray: none; stroke-linecap: butt; stroke-dashoffset: 0; stroke-linejoin: miter; stroke-miterlimit: 4; fill: rgb(188,113,76); fill-rule: nonzero; opacity: 1;" vector-effect="non-scaling-stroke"  transform=" translate(-935.36, -1054.76)" d="M 907.559 1067.5 C 907.559 1067.5 930.3589999999999 1117.23 966.2379999999999 1087.75 C 966.2379999999999 1087.75 982.559 1075.02 962.434 1041.78 C 962.434 1041.78 933.254 993.949 898.23 1020.41 L 907.559 1067.5" stroke-linecap="round" />
</g>
</svg>