<svg width="152" height="163" viewBox="0 0 152 163" fill="none" xmlns="http://www.w3.org/2000/svg">
<path d="M95.732 113.112C95.148 106.664 95.372 102.164 95.372 96.272C98.292 94.74 103.524 84.972 104.408 76.72C106.704 76.532 110.324 74.292 111.384 65.448C111.956 60.7 109.684 58.028 108.3 57.188C112.036 45.952 119.796 11.192 93.948 7.59997C91.288 2.92797 84.476 0.563965 75.624 0.563965C40.208 1.21596 35.936 27.308 43.7 57.188C42.32 58.028 40.048 60.7 40.616 65.448C41.68 74.292 45.296 76.532 47.592 76.72C48.472 84.968 53.912 94.74 56.84 96.272C56.84 102.164 57.06 106.664 56.476 113.112C49.468 131.952 2.184 126.664 0 163H152C149.82 126.664 102.74 131.952 95.732 113.112Z" fill="#9D9D9D"/>
</svg>
