<?xml version="1.0" ?><svg enable-background="new 0 0 512 512" id="Layer_1" version="1.1" viewBox="0 0 512 512" xml:space="preserve" xmlns="http://www.w3.org/2000/svg" xmlns:xlink="http://www.w3.org/1999/xlink"><g><g><linearGradient gradientUnits="userSpaceOnUse" id="SVGID_1_" x1="-0.0000027" x2="512" y1="256" y2="256"><stop offset="0" style="stop-color:#33B49D"/><stop offset="1" style="stop-color:#00A185"/></linearGradient><circle cx="256" cy="256" fill="url(#SVGID_1_)" r="256"/><linearGradient gradientUnits="userSpaceOnUse" id="SVGID_2_" x1="42.6666641" x2="469.3333435" y1="256.0005188" y2="256.0005188"><stop offset="0" style="stop-color:#00A185"/><stop offset="1" style="stop-color:#33B49D"/></linearGradient><path d="M256,469.3338623c-117.6315308,0-213.3333435-95.7023926-213.3333435-213.3333435    c0-117.6314545,95.7018051-213.333313,213.3333435-213.333313c117.6362,0,213.3333435,95.7018661,213.3333435,213.333313    C469.3333435,373.6314697,373.6362,469.3338623,256,469.3338623z" fill="url(#SVGID_2_)"/></g><path d="M264,150.6554718l-120,43.5823975l3.352478,9.2687988l18.1429291-6.5573425v180.3946686h77.1573334   v-60.8383789h42.6949463v60.8383789h77.2063904V196.9493256l18.0933228,6.5573425L384,194.2378693L264,150.6554718z    M253.0671387,290.3551941h-60.3744049v-29.1567993h60.3744049V290.3551941z M253.0671387,238.8933258h-60.3744049v-29.1578522   h60.3744049V238.8933258z M335.3087463,290.3551941h-60.3744202v-29.1567993h60.3744202V290.3551941z M335.3087463,238.8933258   h-60.3744202v-29.1578522h60.3744202V238.8933258z" opacity="0.3"/><path d="M256,142.6554718l-120,43.5823975l3.352478,9.2687988l18.1429291-6.5573425v180.3946686h77.1573334   v-60.8383789h42.6949463v60.8383789h77.2063904V188.9493256l18.0933228,6.5573425L376,186.2378693L256,142.6554718z    M245.0671387,282.3551941h-60.3744049v-29.1567993h60.3744049V282.3551941z M245.0671387,230.8933258h-60.3744049v-29.1578522   h60.3744049V230.8933258z M327.3087463,282.3551941h-60.3744202v-29.1567993h60.3744202V282.3551941z M327.3087463,230.8933258   h-60.3744202v-29.1578522h60.3744202V230.8933258z" fill="#FFFFFF"/></g></svg>